<?xml version="1.0" encoding="UTF-8"?>
<svg width="700pt" height="700pt" version="1.1" viewBox="0 0 700 700" xmlns="http://www.w3.org/2000/svg" xmlns:xlink="http://www.w3.org/1999/xlink">
 <defs>
  <symbol id="v" overflow="visible">
   <path d="m18.766-1.125c-0.96875 0.5-1.9805 0.875-3.0312 1.125-1.043 0.25781-2.1367 0.39062-3.2812 0.39062-3.3984 0-6.0898-0.94531-8.0781-2.8438-1.9922-1.9062-2.9844-4.4844-2.9844-7.7344 0-3.2578 0.99219-5.8359 2.9844-7.7344 1.9883-1.9062 4.6797-2.8594 8.0781-2.8594 1.1445 0 2.2383 0.13281 3.2812 0.39062 1.0508 0.25 2.0625 0.625 3.0312 1.125v4.2188c-0.98047-0.65625-1.9453-1.1406-2.8906-1.4531-0.94922-0.3125-1.9492-0.46875-3-0.46875-1.875 0-3.3516 0.60547-4.4219 1.8125-1.0742 1.1992-1.6094 2.8555-1.6094 4.9688 0 2.1055 0.53516 3.7617 1.6094 4.9688 1.0703 1.1992 2.5469 1.7969 4.4219 1.7969 1.0508 0 2.0508-0.14844 3-0.45312 0.94531-0.3125 1.9102-0.80078 2.8906-1.4688z"/>
  </symbol>
  <symbol id="b" overflow="visible">
   <path d="m13.734-11.141c-0.4375-0.19531-0.87109-0.34375-1.2969-0.4375-0.41797-0.10156-0.83984-0.15625-1.2656-0.15625-1.2617 0-2.2305 0.40625-2.9062 1.2188-0.67969 0.80469-1.0156 1.9531-1.0156 3.4531v7.0625h-4.8906v-15.312h4.8906v2.5156c0.625-1 1.3438-1.7266 2.1562-2.1875 0.82031-0.46875 1.8008-0.70312 2.9375-0.70312 0.16406 0 0.34375 0.011719 0.53125 0.03125 0.19531 0.011719 0.47656 0.039062 0.84375 0.078125z"/>
  </symbol>
  <symbol id="a" overflow="visible">
   <path d="m17.641-7.7031v1.4062h-11.453c0.125 1.1484 0.53906 2.0078 1.25 2.5781 0.70703 0.57422 1.7031 0.85938 2.9844 0.85938 1.0312 0 2.082-0.14844 3.1562-0.45312 1.082-0.3125 2.1914-0.77344 3.3281-1.3906v3.7656c-1.1562 0.4375-2.3125 0.76562-3.4688 0.98438-1.1562 0.22656-2.3125 0.34375-3.4688 0.34375-2.7734 0-4.9297-0.70312-6.4688-2.1094-1.5312-1.4062-2.2969-3.3789-2.2969-5.9219 0-2.5 0.75391-4.4609 2.2656-5.8906 1.5078-1.4375 3.582-2.1562 6.2188-2.1562 2.4062 0 4.332 0.73047 5.7812 2.1875 1.4453 1.4492 2.1719 3.3828 2.1719 5.7969zm-5.0312-1.625c0-0.92578-0.27344-1.6719-0.8125-2.2344-0.54297-0.57031-1.25-0.85938-2.125-0.85938-0.94922 0-1.7188 0.26562-2.3125 0.79688s-0.96484 1.2969-1.1094 2.2969z"/>
  </symbol>
  <symbol id="f" overflow="visible">
   <path d="m9.2188-6.8906c-1.0234 0-1.793 0.17188-2.3125 0.51562-0.51172 0.34375-0.76562 0.85547-0.76562 1.5312 0 0.625 0.20703 1.1172 0.625 1.4688 0.41406 0.34375 0.98828 0.51562 1.7188 0.51562 0.92578 0 1.7031-0.32812 2.3281-0.98438 0.63281-0.66406 0.95312-1.4922 0.95312-2.4844v-0.5625zm7.4688-1.8438v8.7344h-4.9219v-2.2656c-0.65625 0.92969-1.3984 1.6055-2.2188 2.0312-0.82422 0.41406-1.8242 0.625-3 0.625-1.5859 0-2.8711-0.45703-3.8594-1.375-0.99219-0.92578-1.4844-2.1289-1.4844-3.6094 0-1.7891 0.61328-3.1016 1.8438-3.9375 1.2383-0.84375 3.1797-1.2656 5.8281-1.2656h2.8906v-0.39062c0-0.76953-0.30859-1.332-0.92188-1.6875-0.61719-0.36328-1.5703-0.54688-2.8594-0.54688-1.0547 0-2.0312 0.10547-2.9375 0.3125-0.89844 0.21094-1.7305 0.52344-2.5 0.9375v-3.7344c1.0391-0.25 2.0859-0.44141 3.1406-0.57812 1.0625-0.13281 2.125-0.20312 3.1875-0.20312 2.7578 0 4.75 0.54688 5.9688 1.6406 1.2266 1.0859 1.8438 2.8555 1.8438 5.3125z"/>
  </symbol>
  <symbol id="c" overflow="visible">
   <path d="m7.7031-19.656v4.3438h5.0469v3.5h-5.0469v6.5c0 0.71094 0.14062 1.1875 0.42188 1.4375s0.83594 0.375 1.6719 0.375h2.5156v3.5h-4.1875c-1.9375 0-3.3125-0.39844-4.125-1.2031-0.80469-0.8125-1.2031-2.1797-1.2031-4.1094v-6.5h-2.4219v-3.5h2.4219v-4.3438z"/>
  </symbol>
  <symbol id="m" overflow="visible">
   <path d="m12.766-13.078v-8.2031h4.9219v21.281h-4.9219v-2.2188c-0.66797 0.90625-1.4062 1.5703-2.2188 1.9844s-1.7578 0.625-2.8281 0.625c-1.8867 0-3.4336-0.75-4.6406-2.25-1.2109-1.5-1.8125-3.4258-1.8125-5.7812 0-2.3633 0.60156-4.2969 1.8125-5.7969 1.207-1.5 2.7539-2.25 4.6406-2.25 1.0625 0 2 0.21484 2.8125 0.64062 0.82031 0.42969 1.5664 1.0859 2.2344 1.9688zm-3.2188 9.9219c1.0391 0 1.8359-0.37891 2.3906-1.1406 0.55078-0.76953 0.82812-1.8828 0.82812-3.3438 0-1.457-0.27734-2.5664-0.82812-3.3281-0.55469-0.76953-1.3516-1.1562-2.3906-1.1562-1.043 0-1.8398 0.38672-2.3906 1.1562-0.55469 0.76172-0.82812 1.8711-0.82812 3.3281 0 1.4609 0.27344 2.5742 0.82812 3.3438 0.55078 0.76172 1.3477 1.1406 2.3906 1.1406z"/>
  </symbol>
  <symbol id="e" overflow="visible">
   <path d="m10.5-3.1562c1.0508 0 1.8516-0.37891 2.4062-1.1406 0.55078-0.76953 0.82812-1.8828 0.82812-3.3438 0-1.457-0.27734-2.5664-0.82812-3.3281-0.55469-0.76953-1.3555-1.1562-2.4062-1.1562-1.0547 0-1.8594 0.38672-2.4219 1.1562-0.55469 0.77344-0.82812 1.8828-0.82812 3.3281 0 1.4492 0.27344 2.5586 0.82812 3.3281 0.5625 0.77344 1.3672 1.1562 2.4219 1.1562zm-3.25-9.9219c0.67578-0.88281 1.4219-1.5391 2.2344-1.9688 0.82031-0.42578 1.7656-0.64062 2.8281-0.64062 1.8945 0 3.4453 0.75 4.6562 2.25 1.207 1.5 1.8125 3.4336 1.8125 5.7969 0 2.3555-0.60547 4.2812-1.8125 5.7812-1.2109 1.5-2.7617 2.25-4.6562 2.25-1.0625 0-2.0078-0.21094-2.8281-0.625-0.8125-0.42578-1.5586-1.0859-2.2344-1.9844v2.2188h-4.8906v-21.281h4.8906z"/>
  </symbol>
  <symbol id="l" overflow="visible">
   <path d="m0.34375-15.312h4.8906l4.125 10.391 3.5-10.391h4.8906l-6.4375 16.766c-0.64844 1.6953-1.4023 2.8828-2.2656 3.5625-0.86719 0.6875-2 1.0312-3.4062 1.0312h-2.8438v-3.2188h1.5312c0.83203 0 1.4375-0.13672 1.8125-0.40625 0.38281-0.26172 0.67969-0.73047 0.89062-1.4062l0.14062-0.42188z"/>
  </symbol>
  <symbol id="k" overflow="visible">
   <path d="m10.047-11.359c1.1016 0 1.8945-0.20312 2.375-0.60938 0.47656-0.41406 0.71875-1.0938 0.71875-2.0312 0-0.92578-0.24219-1.5859-0.71875-1.9844-0.48047-0.40625-1.2734-0.60938-2.375-0.60938h-2.2188v5.2344zm-2.2188 3.6406v7.7188h-5.25v-20.406h8.0312c2.6875 0 4.6562 0.45312 5.9062 1.3594 1.2578 0.89844 1.8906 2.3203 1.8906 4.2656 0 1.3555-0.32812 2.4648-0.98438 3.3281-0.64844 0.86719-1.625 1.5-2.9375 1.9062 0.71875 0.16797 1.3594 0.54297 1.9219 1.125 0.57031 0.57422 1.1484 1.4492 1.7344 2.625l2.8594 5.7969h-5.6094l-2.4844-5.0781c-0.5-1.0195-1.0117-1.7109-1.5312-2.0781-0.51172-0.375-1.1953-0.5625-2.0469-0.5625z"/>
  </symbol>
  <symbol id="d" overflow="visible">
   <path d="m9.6406-12.188c-1.0859 0-1.9141 0.39062-2.4844 1.1719-0.57422 0.78125-0.85938 1.9062-0.85938 3.375s0.28516 2.5938 0.85938 3.375c0.57031 0.77344 1.3984 1.1562 2.4844 1.1562 1.0625 0 1.875-0.38281 2.4375-1.1562 0.57031-0.78125 0.85938-1.9062 0.85938-3.375s-0.28906-2.5938-0.85938-3.375c-0.5625-0.78125-1.375-1.1719-2.4375-1.1719zm0-3.5c2.6328 0 4.6914 0.71484 6.1719 2.1406 1.4766 1.418 2.2188 3.3867 2.2188 5.9062 0 2.5117-0.74219 4.4805-2.2188 5.9062-1.4805 1.418-3.5391 2.125-6.1719 2.125-2.6484 0-4.7148-0.70703-6.2031-2.125-1.4922-1.4258-2.2344-3.3945-2.2344-5.9062 0-2.5195 0.74219-4.4883 2.2344-5.9062 1.4883-1.4258 3.5547-2.1406 6.2031-2.1406z"/>
  </symbol>
  <symbol id="u" overflow="visible">
   <path d="m10.75-12.516c0.82031 0 1.4453-0.17969 1.875-0.54688 0.4375-0.36328 0.65625-0.89844 0.65625-1.6094 0-0.69531-0.21875-1.2266-0.65625-1.5938-0.42969-0.375-1.0547-0.5625-1.875-0.5625h-2.9219v4.3125zm0.17188 8.9375c1.0625 0 1.8594-0.22266 2.3906-0.67188 0.53125-0.44531 0.79688-1.125 0.79688-2.0312 0-0.88281-0.26562-1.5469-0.79688-1.9844-0.52344-0.4375-1.3203-0.65625-2.3906-0.65625h-3.0938v5.3438zm4.8906-7.3438c1.1328 0.32422 2.0078 0.92969 2.625 1.8125 0.625 0.88672 0.9375 1.9688 0.9375 3.25 0 1.9688-0.66797 3.4375-2 4.4062-1.3359 0.96875-3.3555 1.4531-6.0625 1.4531h-8.7344v-20.406h7.8906c2.832 0 4.8828 0.42969 6.1562 1.2812 1.2812 0.85547 1.9219 2.2266 1.9219 4.1094 0 1-0.23438 1.8516-0.70312 2.5469-0.46875 0.6875-1.1484 1.2031-2.0312 1.5469z"/>
  </symbol>
  <symbol id="j" overflow="visible">
   <path d="m2.3594-15.312h4.8906v15.031c0 2.0508-0.49609 3.6172-1.4844 4.7031-0.98047 1.082-2.4062 1.625-4.2812 1.625h-2.4219v-3.2188h0.85938c0.92578 0 1.5625-0.21094 1.9062-0.625 0.35156-0.41797 0.53125-1.2461 0.53125-2.4844zm0-5.9688h4.8906v4h-4.8906z"/>
  </symbol>
  <symbol id="i" overflow="visible">
   <path d="m2.1875-5.9688v-9.3438h4.9219v1.5312c0 0.83594-0.007813 1.875-0.015625 3.125-0.011719 1.25-0.015625 2.0859-0.015625 2.5 0 1.2422 0.03125 2.1328 0.09375 2.6719 0.070313 0.54297 0.17969 0.93359 0.32812 1.1719 0.20703 0.32422 0.47266 0.57422 0.79688 0.75 0.32031 0.16797 0.69141 0.25 1.1094 0.25 1.0195 0 1.8203-0.39062 2.4062-1.1719 0.58203-0.78125 0.875-1.8672 0.875-3.2656v-7.5625h4.8906v15.312h-4.8906v-2.2188c-0.74219 0.89844-1.5234 1.5586-2.3438 1.9844-0.82422 0.41406-1.7344 0.625-2.7344 0.625-1.7617 0-3.1055-0.53906-4.0312-1.625-0.92969-1.082-1.3906-2.6602-1.3906-4.7344z"/>
  </symbol>
  <symbol id="t" overflow="visible">
   <path d="m14.312-14.828v3.7188c-1.043-0.4375-2.0547-0.76562-3.0312-0.98438-0.98047-0.21875-1.9023-0.32812-2.7656-0.32812-0.92969 0-1.6211 0.11719-2.0781 0.34375-0.44922 0.23047-0.67188 0.58984-0.67188 1.0781 0 0.38672 0.17188 0.68359 0.51562 0.89062 0.34375 0.21094 0.95703 0.36719 1.8438 0.46875l0.85938 0.125c2.5078 0.32422 4.1953 0.85156 5.0625 1.5781 0.86328 0.73047 1.2969 1.8711 1.2969 3.4219 0 1.6367-0.60547 2.8672-1.8125 3.6875-1.1992 0.8125-2.9922 1.2188-5.375 1.2188-1.0234 0-2.0742-0.078125-3.1562-0.23438-1.0742-0.15625-2.1797-0.39453-3.3125-0.71875v-3.7188c0.96875 0.48047 1.9609 0.83984 2.9844 1.0781 1.0312 0.23047 2.0781 0.34375 3.1406 0.34375 0.95703 0 1.6758-0.12891 2.1562-0.39062 0.47656-0.26953 0.71875-0.66406 0.71875-1.1875 0-0.4375-0.16797-0.75781-0.5-0.96875-0.33594-0.21875-0.99609-0.38281-1.9844-0.5l-0.85938-0.10938c-2.1797-0.26953-3.7031-0.77344-4.5781-1.5156-0.875-0.73828-1.3125-1.8594-1.3125-3.3594 0-1.625 0.55078-2.8281 1.6562-3.6094 1.1133-0.78906 2.8203-1.1875 5.125-1.1875 0.89453 0 1.8359 0.074219 2.8281 0.21875 1 0.13672 2.082 0.35156 3.25 0.64062z"/>
  </symbol>
  <symbol id="h" overflow="visible">
   <path d="m17.75-9.3281v9.3281h-4.9219v-7.1094c0-1.3438-0.03125-2.2656-0.09375-2.7656s-0.16797-0.86719-0.3125-1.1094c-0.1875-0.3125-0.44922-0.55469-0.78125-0.73438-0.32422-0.17578-0.69531-0.26562-1.1094-0.26562-1.0234 0-1.8242 0.39844-2.4062 1.1875-0.58594 0.78125-0.875 1.8711-0.875 3.2656v7.5312h-4.8906v-21.281h4.8906v8.2031c0.73828-0.88281 1.5195-1.5391 2.3438-1.9688 0.83203-0.42578 1.75-0.64062 2.75-0.64062 1.7695 0 3.1133 0.54688 4.0312 1.6406 0.91406 1.0859 1.375 2.6562 1.375 4.7188z"/>
  </symbol>
  <symbol id="s" overflow="visible">
   <path d="m12.766-2.5938c-0.66797 0.88672-1.4062 1.543-2.2188 1.9688-0.8125 0.41797-1.7578 0.625-2.8281 0.625-1.8672 0-3.4062-0.73438-4.625-2.2031-1.2188-1.4766-1.8281-3.3516-1.8281-5.625 0-2.2891 0.60938-4.1641 1.8281-5.625 1.2188-1.4688 2.7578-2.2031 4.625-2.2031 1.0703 0 2.0156 0.21484 2.8281 0.64062 0.8125 0.41797 1.5508 1.0742 2.2188 1.9688v-2.2656h4.9219v13.766c0 2.457-0.77734 4.3359-2.3281 5.6406-1.5547 1.3008-3.8086 1.9531-6.7656 1.9531-0.94922 0-1.8711-0.074219-2.7656-0.21875-0.89844-0.14844-1.7969-0.37109-2.7031-0.67188v-3.8125c0.86328 0.48828 1.7031 0.85156 2.5156 1.0938 0.82031 0.23828 1.6484 0.35938 2.4844 0.35938 1.6016 0 2.7734-0.35156 3.5156-1.0469 0.75-0.69922 1.125-1.7969 1.125-3.2969zm-3.2188-9.5312c-1.0117 0-1.8047 0.375-2.375 1.125-0.5625 0.74219-0.84375 1.7969-0.84375 3.1719 0 1.3984 0.26953 2.4609 0.8125 3.1875 0.55078 0.71875 1.3516 1.0781 2.4062 1.0781 1.0195 0 1.8125-0.36719 2.375-1.1094 0.5625-0.75 0.84375-1.8008 0.84375-3.1562 0-1.375-0.28125-2.4297-0.84375-3.1719-0.5625-0.75-1.3555-1.125-2.375-1.125z"/>
  </symbol>
  <symbol id="g" overflow="visible">
   <path d="m17.75-9.3281v9.3281h-4.9219v-7.1406c0-1.3203-0.03125-2.2344-0.09375-2.7344s-0.16797-0.86719-0.3125-1.1094c-0.1875-0.3125-0.44922-0.55469-0.78125-0.73438-0.32422-0.17578-0.69531-0.26562-1.1094-0.26562-1.0234 0-1.8242 0.39844-2.4062 1.1875-0.58594 0.78125-0.875 1.8711-0.875 3.2656v7.5312h-4.8906v-15.312h4.8906v2.2344c0.73828-0.88281 1.5195-1.5391 2.3438-1.9688 0.83203-0.42578 1.75-0.64062 2.75-0.64062 1.7695 0 3.1133 0.54688 4.0312 1.6406 0.91406 1.0859 1.375 2.6562 1.375 4.7188z"/>
  </symbol>
  <symbol id="r" overflow="visible">
   <path d="m12.422-21.281v3.2188h-2.7031c-0.6875 0-1.1719 0.125-1.4531 0.375-0.27344 0.25-0.40625 0.6875-0.40625 1.3125v1.0625h4.1875v3.5h-4.1875v11.812h-4.8906v-11.812h-2.4375v-3.5h2.4375v-1.0625c0-1.6641 0.46094-2.8984 1.3906-3.7031 0.92578-0.80078 2.3672-1.2031 4.3281-1.2031z"/>
  </symbol>
  <symbol id="q" overflow="visible">
   <path d="m16.547-12.766c0.61328-0.94531 1.3477-1.6719 2.2031-2.1719 0.85156-0.5 1.7891-0.75 2.8125-0.75 1.7578 0 3.0977 0.54688 4.0156 1.6406 0.92578 1.0859 1.3906 2.6562 1.3906 4.7188v9.3281h-4.9219v-7.9844-0.35938c0.007813-0.13281 0.015625-0.32031 0.015625-0.5625 0-1.082-0.16406-1.8633-0.48438-2.3438-0.3125-0.48828-0.82422-0.73438-1.5312-0.73438-0.92969 0-1.6484 0.38672-2.1562 1.1562-0.51172 0.76172-0.77344 1.8672-0.78125 3.3125v7.5156h-4.9219v-7.9844c0-1.6953-0.14844-2.7852-0.4375-3.2656-0.29297-0.48828-0.8125-0.73438-1.5625-0.73438-0.9375 0-1.6641 0.38672-2.1719 1.1562-0.51172 0.76172-0.76562 1.8594-0.76562 3.2969v7.5312h-4.9219v-15.312h4.9219v2.2344c0.60156-0.86328 1.2891-1.5156 2.0625-1.9531 0.78125-0.4375 1.6406-0.65625 2.5781-0.65625 1.0625 0 2 0.25781 2.8125 0.76562 0.8125 0.51172 1.4258 1.2305 1.8438 2.1562z"/>
  </symbol>
  <symbol id="p" overflow="visible">
   <path d="m2.5781-20.406h5.875l7.4219 14v-14h4.9844v20.406h-5.875l-7.4219-14v14h-4.9844z"/>
  </symbol>
  <symbol id="o" overflow="visible">
   <path d="m2.5781-20.406h8.7344c2.5938 0 4.582 0.57812 5.9688 1.7344 1.3945 1.1484 2.0938 2.7891 2.0938 4.9219 0 2.1367-0.69922 3.7812-2.0938 4.9375-1.3867 1.1562-3.375 1.7344-5.9688 1.7344h-3.4844v7.0781h-5.25zm5.25 3.8125v5.7031h2.9219c1.0195 0 1.8047-0.25 2.3594-0.75 0.5625-0.5 0.84375-1.2031 0.84375-2.1094 0-0.91406-0.28125-1.6172-0.84375-2.1094-0.55469-0.48828-1.3398-0.73438-2.3594-0.73438z"/>
  </symbol>
  <symbol id="n" overflow="visible">
   <path d="m14.719-14.828v3.9844c-0.65625-0.45703-1.3242-0.79688-2-1.0156-0.66797-0.21875-1.3594-0.32812-2.0781-0.32812-1.3672 0-2.4336 0.40234-3.2031 1.2031-0.76172 0.79297-1.1406 1.9062-1.1406 3.3438 0 1.4297 0.37891 2.543 1.1406 3.3438 0.76953 0.79297 1.8359 1.1875 3.2031 1.1875 0.75781 0 1.4844-0.10938 2.1719-0.32812 0.6875-0.22656 1.3203-0.56641 1.9062-1.0156v4c-0.76172 0.28125-1.5391 0.48828-2.3281 0.625-0.78125 0.14453-1.5742 0.21875-2.375 0.21875-2.7617 0-4.9219-0.70703-6.4844-2.125-1.5547-1.4141-2.3281-3.3828-2.3281-5.9062 0-2.5312 0.77344-4.5039 2.3281-5.9219 1.5625-1.4141 3.7227-2.125 6.4844-2.125 0.80078 0 1.5938 0.074219 2.375 0.21875 0.78125 0.13672 1.5547 0.35156 2.3281 0.64062z"/>
  </symbol>
 </defs>
 <g>
  <path d="m467.04 39.762 117.04 204.4-117.04 203.28h-234.08l-117.6-203.84 117.6-203.84h232.96m10.078-15.684h-252l-126 219.52 126 219.52h252l126-219.52z"/>
  <path d="m460.32 54.879 110.32 189.28-110.32 188.16h-220.64l-109.76-188.72 109.76-188.72h221.2m2.2422-5.0391h-226.24l-113.12 193.76 113.12 194.32h226.24l113.12-194.32z"/>
  <path d="m516.32 162.96-2.8008 4.4805c2.8008 0.55859 5.6016 1.1211 7.8398 1.6797l2.8008-4.4805c-2.2383-0.5625-5.0391-1.1211-7.8398-1.6797z"/>
  <path d="m515.2 177.52c-2.2383-0.55859-5.0391-1.1211-7.8398-1.6797l-2.8008 4.4805c2.8008 0.55859 5.6016 1.1211 7.8398 1.1211z"/>
  <path d="m486.08 193.2c-1.6797 0-3.3594-0.55859-5.0391-0.55859l-2.8008 3.9219c2.2383 0.55859 5.0391 1.1211 7.8398 1.6797l3.3594-4.4805c-1.1172 0-2.2383-0.5625-3.3594-0.5625z"/>
  <path d="m493.36 174.72-2.8008 4.4805h1.1211c2.2383 0 4.4805 0.55859 7.2812 0.55859l3.3594-4.4805c-3.3594 0.003906-6.1602-0.55859-8.9609-0.55859z"/>
  <path d="m502.88 160.72-3.3594 4.4805c2.8008 0 5.6016 0.55859 8.3984 1.1211l2.8008-4.4805c-2.2383-0.55859-5.0391-0.55859-7.8398-1.1211z"/>
  <path d="m517.44 152.88 2.8008-4.4805c-2.8008-0.55859-5.6016-1.1211-7.8398-1.1211l-3.3594 4.4805c2.7969 0.003907 5.5977 0.5625 8.3984 1.1211z"/>
  <path d="m521.36 199.36s-1.1211 0-2.2383-0.55859l-2.8008 4.4805c2.2383 0.55859 3.9219 0.55859 3.9219 0.55859h0.55859c1.1211 0 2.2383-0.55859 2.2383-1.6797 0.5625-1.6797-0.55859-2.8008-1.6797-2.8008z"/>
  <path d="m514.08 197.68c-1.6797-0.55859-3.9219-0.55859-6.1602-1.1211l-2.8008 4.4805c2.2383 0.55859 4.4805 0.55859 6.1602 1.1211z"/>
  <path d="m520.24 178.64-2.8008 4.4805c2.8008 0.55859 7.8398 1.6797 6.1602 1.1211-1.6797-0.55859 6.1602-0.55859 2.8008-4.4805-1.1172-1.1211-3.3594-0.5625-6.1602-1.1211z"/>
  <path d="m492.24 143.36-2.8008 3.9219c3.9219 2.2383 8.3984 3.3594 12.879 3.3594h1.6797l3.3594-4.4805c-1.6797 0-3.3594-0.55859-4.4805-0.55859-3.9141 0.55859-7.2734-0.5625-10.637-2.2422z"/>
  <path d="m494.48 164.64 3.3594-4.4805h-0.55859c-4.4805 0-8.9609-1.6797-13.441-4.4805l-2.8008 3.9219c3.9219 2.7969 8.4023 4.4766 13.441 5.0391z"/>
  <path d="m484.96 178.08 2.8008-3.9219c-4.4805-1.1211-8.9609-2.8008-12.879-5.6016l-2.8008 3.9219c4.4766 2.2422 8.3984 4.4844 12.879 5.6016z"/>
  <path d="m473.2 194.88 2.8008-3.9219c-3.9219-1.6797-7.8398-4.4805-12.32-7.2812l-2.8008 3.9219c4.4805 2.8008 8.4023 5.6016 12.32 7.2812z"/>
  <path d="m502.88 195.44c-2.8008-0.55859-5.6016-1.1211-8.3984-1.1211l-3.3594 4.4805c2.8008 0.55859 5.6016 0.55859 8.3984 1.1211z"/>
  <path d="m258.72 187.04c11.762-5.0391 16.238-1.1211 17.922 11.762 1.1211 6.7188 7.8398 13.441 14 21.84 2.8008-10.078 5.6016-16.801 6.1602-24.078 0.55859-5.6016 0.55859-14-2.8008-17.359-10.641-10.078-31.359-6.1602-40.879 6.1602 2.2383 1.1172 4.4805 2.2383 5.5977 1.6758z"/>
  <path d="m280 267.12c-15.121-5.6016-31.922 2.2383-40.879 19.602 3.3594-0.55859 6.1602 0 6.7188-1.1211 7.8398-12.879 19.602-14.559 33.039-11.762 3.9219 0.55859 7.8398-1.1211 11.762-1.6797 15.68-3.3594 20.16-11.199 13.441-30.238-2.8008 6.7188-4.4805 11.199-5.6016 15.68-3.3594 8.957-8.9609 12.879-18.48 9.5195z"/>
  <path d="m283.92 277.76c0.55859 1.1211-3.9219 2.8008 0.55859 14.559-5.0391 6.1602-10.078-2.2383-17.359 6.7188 5.0391 1.6797-17.922 12.879-9.5195 15.68 6.1602-15.68 44.801-9.5195 53.199-1.6797 3.918-5.5977-16.242-33.598-26.879-35.277z"/>
  <path d="m244.16 201.6c-3.3594 5.6016-7.2812 11.199-10.641 17.359 13.441-2.2422 15.68-6.1602 10.641-17.359z"/>
  <path d="m319.76 161.28c1.6797-2.8008 3.3594-5.0391 4.4805-7.2812 5.6016-10.641 10.641-12.32 18.48-3.3594 6.1602 7.2812 9.5195 16.801 14.559 25.199 6.7188 10.641-2.2383 24.641 8.9609 34.16 2.8008 2.2383 5.0391 4.4805 6.7188 6.7188 10.078 14 18.48 29.121 29.68 41.441 2.8008 2.8008 16.238 9.5195 19.039 10.641l2.8008-3.9219c-3.3594-1.1211-6.1602-3.3594-9.5195-5.6016-5.0391-3.9219-10.078-7.2812-14-11.762-6.7188-6.7188-10.641-15.68-16.238-23.52 1.1211-0.55859 1.6797-1.1211 2.8008-2.2383 11.199 3.9219 14 20.16 28.559 22.961 8.9609 3.9219 12.879 5.6016 16.801 6.7188l2.8008-3.9219c-4.4805-1.1211-31.359-19.039-38.078-25.762 15.121-5.6016 30.801 11.762 30.801 11.762 4.4805 2.2383 8.9609 4.4805 13.441 5.0391l3.3594-4.4805h-0.55859c-4.4805 0-8.3984-1.6797-12.879-3.9219-9.5195-8.3984-18.48-16.238-26.879-24.641 1.1211-1.6797 2.2383-2.8008 3.3594-4.4805 4.4805 2.8008 8.9609 5.0391 12.879 8.3984 2.8008 2.2383 15.68 13.441 28.559 15.121 0.55859 0 5.0391-4.4805 5.0391-4.4805-1.6797 0-3.3594 0-4.4805-0.55859-13.441-2.8008-29.68-20.719-36.961-25.762 0.55859-1.1211 1.1211-2.2383 2.2383-2.8008 10.078 8.9609 39.199 20.16 44.801 19.602 0.55859 0 4.4805-4.4805 4.4805-4.4805-1.1211 0-2.8008 0-3.9219-0.55859-3.3594 0-7.2812-1.1211-26.32-10.641-7.2812-8.3984-14.559-16.238-22.398-23.52-3.9258-3.3516-10.086-8.9531-15.125-8.9531-13.441 0-21.281-6.7188-29.68-15.68-12.879-13.441-34.16-14.559-47.602-1.6797-5.5977 5.6016-6.7188 10.641 0.003907 16.242z"/>
  <path d="m408.24 337.68c-2.8008-0.55859-5.6016-1.6797-10.078-3.3594-8.3984-5.6016-16.801-11.199-25.199-16.801 1.1211-1.6797 1.6797-2.8008 2.8008-4.4805 8.9609 3.3594 34.16 15.121 39.199 15.68l3.3594-4.4805h-0.55859c-1.6797 0-2.8008-0.55859-4.4805-0.55859-12.32-8.3984-28.559-11.199-34.719-27.441 14.559 11.199 45.359 19.039 45.922 19.039l3.3594-4.4805c-1.6797 0-3.3594-0.55859-4.4805-0.55859-0.55859 0-21.281-10.641-21.281-10.641-6.7188-2.8008-12.879-6.7188-15.68-15.121 6.7188 1.6797 16.801 4.4805 16.801 4.4805 20.719 10.641 30.238 12.32 30.801 12.32l3.3594-4.4805c-1.1211 0-2.8008 0-3.9219-0.55859-3.3594 0-47.039-25.199-55.441-35.84-8.9609-11.199-22.398-18.48-38.641-15.68-8.3984-14-16.238-15.68-24.641-5.0391 7.2812 7.2812 17.922 10.078 21.84 22.398 2.8008 10.078 12.32 17.922 8.3984 30.238-0.55859 2.2383 0.55859 5.6016 2.2383 7.2812 14.559 16.801 28 35.281 50.961 42 3.3594 1.1211 6.1602 1.6797 9.5195 2.8008 0.003907-1.1172 0.5625-6.7188 0.5625-6.7188z"/>
  <path d="m366.8 229.6c-1.1211 1.1211-2.2383 2.2383-3.9219 3.3594 8.9609 10.078 17.922 19.602 28 30.801-1.6797-17.922-14.559-24.641-24.078-34.16z"/>
  <path d="m337.12 392c-5.6016 0.55859-11.199 3.3594-16.801 5.0391 2.8008 2.8008 7.8398 5.6016 10.078 7.8398 6.7188-2.8008 8.3984-3.9219 15.68-6.7188-4.4766-2.2383-6.1562-6.1602-8.957-6.1602z"/>
  <path d="m369.04 345.52c10.078 5.6016 27.441 11.199 27.441 11.199l3.3594-5.6016s-7.8398-1.6797-17.922-5.6016c-3.9219-1.6797-6.7188-3.3594-8.3984-4.4805-0.55859-2.2383-2.8008-5.6016-6.7188-9.5195-6.7188-2.8008-13.441-14-18.48-17.922 2.8008 6.7188 7.2812 16.801 3.9219 26.879 7.2773 2.8086 13.438 5.0469 16.797 5.0469z"/>
  <path d="m473.2 238.56c-2.2383-0.55859-5.0391-1.1211-7.8398-1.6797l-3.3594 4.4805c2.8008 0.55859 5.6016 1.1211 7.8398 1.6797z"/>
  <path d="m486.08 226.24-2.2383 4.4805h2.2383 0.55859c1.1211 0 2.2383-0.55859 2.2383-1.6797-0.55469-1.1172-2.2344-2.2383-2.7969-2.8008z"/>
  <path d="m463.68 252c-2.2383-0.55859-5.0391-1.1211-7.8398-1.6797l-2.8008 4.4805c2.8008 0.55859 5.6016 1.1211 7.8398 1.1211z"/>
  <path d="m482.16 225.12c-2.2383-0.55859-5.0391-1.1211-7.8398-1.6797l-2.8008 4.4805c2.8008 0.55859 5.6016 1.1211 7.8398 1.6797z"/>
  <path d="m478.8 208.88c-2.8008-0.55859-5.6016-1.1211-7.8398-1.1211l-3.3594 4.4805c2.8008 0.55859 5.6016 0.55859 8.3984 1.1211z"/>
  <path d="m434.56 272.16 3.3594-4.4805h-3.3594c-1.6797 0-3.3594-0.55859-5.0391-0.55859l-2.8008 3.9219c2.2422 0.55859 5.043 1.1172 7.8398 1.1172z"/>
  <path d="m497.28 212.24-2.8008 3.9219c1.1211 0 1.6797 0.55859 1.6797 0.55859h0.55859c1.1211 0 2.2383-0.55859 2.2383-1.6797 0.003907-1.1172-1.1172-2.2383-1.6758-2.8008z"/>
  <path d="m439.04 253.12h1.1211c2.2383 0 4.4805 0.55859 7.2812 0.55859l3.3594-4.4805c-2.8008-0.55859-5.6016-0.55859-8.3984-1.1211z"/>
  <path d="m448.56 239.68c2.8008 0 5.6016 0.55859 8.3984 1.1211l2.8008-4.4805c-2.8008-0.55859-5.6016-0.55859-8.3984-1.1211z"/>
  <path d="m481.04 240.24s-1.1211-0.55859-2.8008-0.55859l-2.8008 4.4805c2.8008 0.55859 5.0391 1.1211 5.0391 1.1211h0.55859c0.55859 0 1.1211 0 1.1211-0.55859l1.1211-1.6797c0.003906-1.1211-1.1172-2.2422-2.2383-2.8047z"/>
  <path d="m481.04 213.92c2.8008 0.55859 5.6016 1.1211 7.8398 1.6797l2.8008-4.4805c-2.2383-0.55859-5.0391-1.1211-7.8398-1.6797z"/>
  <path d="m469.28 222.88c-2.8008-0.55859-5.6016-1.1211-7.8398-1.1211l-3.3594 4.4805c2.8008 0.55859 5.6016 0.55859 8.3984 1.1211z"/>
  <path d="m469.84 273.28s-1.1211 0-2.2383-0.55859l-2.8008 4.4805c2.2383 0.55859 3.9219 0.55859 3.9219 0.55859h0.55859c1.1211 0 2.2383-0.55859 2.2383-1.6797 0.55859-1.1211-0.55859-2.2422-1.6797-2.8008z"/>
  <path d="m462.56 271.6c-1.6797-0.55859-3.9219-0.55859-6.1602-1.1211l-2.8008 4.4805c2.2383 0.55859 4.4805 0.55859 6.1602 1.1211z"/>
  <path d="m468.72 253.12-2.8008 4.4805c2.8008 0.55859 7.8398 1.6797 6.1602 1.1211s6.1602-0.55859 2.8008-4.4805c-1.1172-1.1211-3.3594-0.5625-6.1602-1.1211z"/>
  <path d="m451.36 269.92c-2.8008-0.55859-5.6016-1.1211-8.3984-1.1211l-3.3594 4.4805c2.8008 0.55859 5.6016 0.55859 8.3984 1.1211z"/>
  <path d="m423.36 389.76-2.2383 4.4805h2.2383 0.55859c1.1211 0 2.2383-0.55859 2.2383-1.6797-0.55469-1.1211-2.2344-2.2422-2.7969-2.8008z"/>
  <path d="m419.44 388.64c-2.2383-0.55859-5.0391-1.1211-7.8398-1.6797l-2.8008 4.4805c2.8008 0.55859 5.6016 1.1211 7.8398 1.6797z"/>
  <path d="m416.08 372.4c-2.8008-0.55859-5.6016-1.1211-7.8398-1.1211l-3.3594 3.9219c2.8008 0.55859 5.6016 0.55859 8.3984 1.1211z"/>
  <path d="m434 375.76-2.8008 3.9219c1.1211 0 1.6797 0.55859 1.6797 0.55859h0.55859c1.1211 0 2.2383-0.55859 2.2383-1.6797 0.5625-1.1211-0.55469-2.2422-1.6758-2.8008z"/>
  <path d="m418.32 377.44c2.8008 0.55859 5.6016 1.1211 7.8398 1.6797l2.8008-4.4805c-2.2383-0.55859-5.0391-1.1211-7.8398-1.6797z"/>
  <path d="m398.16 384.72-3.3594 4.4805c2.8008 0.55859 5.6016 0.55859 8.3984 1.1211l2.8008-4.4805c-2.2383 0-5.0391-0.55859-7.8398-1.1211z"/>
  <path d="m388.64 384.16c-2.8008 0-6.1602-1.1211-15.121-7.2812-1.6797-1.1211-2.8008-2.8008-2.8008-4.4805-1.1211-5.0391-2.2383-9.5195 2.2383-7.2812 16.801 8.3984 26.32 10.078 26.32 10.078l3.3594-4.4805c-1.1211 0-2.8008 0-3.9219-0.55859-3.3594 0-38.078-17.359-46.48-20.719 0.55859 5.0391 1.1211 8.3984 1.1211 11.762-10.641-4.4805-20.16-8.3984-33.039-13.441 5.0391-1.6797 7.8398-2.8008 12.32-4.4805-12.879-10.641-22.398-19.602-33.602-26.879-17.359-10.641-39.199-3.9219-42 12.32-1.6797 8.9609-4.4805 12.879-11.762 17.922-7.8398 5.6016-14.559 6.7188-23.52 5.6016-2.2383 0-5.0391 0.55859-9.5195 1.1211 7.2812 7.2812 21.84 7.8398 14 22.398 7.2812 3.9219 10.641 2.8008 12.879-5.6016 1.6797-6.1602 6.7188-11.199 10.641-16.801 2.8008-4.4805 7.2812-8.3984 8.3984-12.879 1.6797-7.2812 2.2383-15.121 10.641-14.559 6.1602 0 14 3.3594 17.922 7.8398 13.441 15.68 6.1602 35.281 7.8398 54.32 12.879 9.5195 14 9.5195 22.398-0.55859 15.68-6.7188 31.359-3.3594 43.121 6.7188 0 0 7.8398 5.6016 11.762 7.2812l2.8008-3.9219c-3.3594-1.1211-6.1602-3.3594-9.5195-5.0391-10.078-7.8398-24.078-18.48-33.602-26.32 0.55859-1.6797 0.55859-1.6797 1.1211-2.8008 13.441 0.55859 27.441 18.48 56.559 26.32l3.3594-4.4805c-1.1133-1.1211-2.793-1.1211-3.9141-1.1211z"/>
  <path d="m444.64 328.16c-2.2383-0.55859-5.0391-1.1211-7.8398-1.6797l-2.8008 4.4805c2.8008 0.55859 5.6016 1.1211 7.8398 1.6797z"/>
  <path d="m457.52 316.4-2.2383 4.4805h2.2383 0.55859c1.1211 0 2.2383-0.55859 2.2383-1.6797 0.003906-1.6797-1.6758-2.8008-2.7969-2.8008z"/>
  <path d="m427.28 340.48-2.8008 4.4805c2.8008 0.55859 5.6016 1.1211 7.8398 1.1211l2.8008-4.4805c-2.2422-0.5625-5.043-1.1211-7.8398-1.1211z"/>
  <path d="m454.16 314.72c-2.2383-0.55859-5.0391-1.1211-7.8398-1.6797l-2.8008 4.4805c2.8008 0.55859 5.6016 1.1211 7.8398 1.6797z"/>
  <path d="m450.8 298.48c-2.8008-0.55859-5.6016-1.1211-7.8398-1.1211l-3.3594 4.4805c2.8008 0.55859 5.6016 0.55859 8.3984 1.1211z"/>
  <path d="m380.24 398.72-2.8008 3.9219c2.2383 0.55859 5.0391 1.1211 7.8398 1.6797l3.3594-4.4805h-3.3594c-1.6758-0.55859-3.3555-0.55859-5.0391-1.1211z"/>
  <path d="m468.72 302.4-2.8008 3.9219c1.1211 0 1.6797 0.55859 1.6797 0.55859h0.55859c1.1211 0 2.2383-0.55859 2.2383-1.6797 0.003907-1.6797-0.55469-2.8008-1.6758-2.8008z"/>
  <path d="m413.84 338.24-3.3594 4.4805h1.1211c2.2383 0 4.4805 0.55859 7.2812 0.55859l3.3594-4.4805c-2.8008 0.003906-5.6016 0.003906-8.4023-0.55859z"/>
  <path d="m431.76 325.92c-2.8008-0.55859-5.6016-0.55859-8.3984-1.1211l-3.3594 4.4805c2.8008 0 5.6016 0.55859 8.3984 1.1211z"/>
  <path d="m453.04 329.84s-1.1211-0.55859-2.8008-0.55859l-2.8008 4.4805c2.8008 0.55859 5.0391 1.1211 5.0391 1.1211h0.55859c0.55859 0 1.1211 0 1.1211-0.55859l1.1211-1.6797c-0.55859-1.125-1.1172-2.2461-2.2383-2.8047z"/>
  <path d="m453.04 303.52c2.8008 0.55859 5.6016 1.1211 7.8398 1.6797l2.8008-4.4805c-2.2383-0.55859-5.0391-1.1211-7.8398-1.6797z"/>
  <path d="m441.28 312.48c-2.8008-0.55859-5.6016-1.1211-7.8398-1.1211l-3.3594 4.4805c2.8008 0.55859 5.6016 0.55859 8.3984 1.1211z"/>
  <path d="m420.56 404.88s-1.1211 0-2.2383-0.55859l-2.8008 4.4805c2.2383 0.55859 3.9219 0.55859 3.9219 0.55859h0.55859c1.1211 0 2.2383-0.55859 2.2383-1.6797 0.5625-1.1211-0.55859-2.2383-1.6797-2.8008z"/>
  <path d="m404.32 406.56c2.2383 0.55859 4.4805 0.55859 6.1602 1.1211l2.8008-4.4805c-1.6797-0.55859-3.9219-0.55859-6.1602-1.1211z"/>
  <path d="m440.72 342.72-3.3594 4.4805c2.8008 0.55859 7.8398 1.6797 6.1602 1.1211-1.6797-0.55859 6.1602-0.55859 2.8008-4.4805-1.1211-1.1211-2.8008-0.55859-5.6016-1.1211z"/>
  <path d="m390.88 404.88c2.8008 0.55859 5.6016 0.55859 8.3984 1.1211l2.8008-4.4805c-2.8008-0.55859-5.6016-1.1211-8.3984-1.1211z"/>
  <path d="m422.24 354.48-2.8008 4.4805c2.8008 0.55859 5.6016 1.1211 7.8398 1.1211l2.8008-4.4805c-2.7969-0.5625-5.0391-0.5625-7.8398-1.1211z"/>
  <path d="m408.24 352.8-3.3594 4.4805h1.1211c2.2383 0 4.4805 0.55859 7.2812 0.55859l3.3594-4.4805c-2.8008 0-5.6016-0.55859-8.4023-0.55859z"/>
  <path d="m435.12 356.72-2.8008 4.4805c2.8008 0.55859 7.8398 1.6797 6.1602 1.1211-1.6797-0.55859 6.1602-0.55859 2.8008-4.4805-1.1211-1.1211-3.3594-0.55859-6.1602-1.1211z"/>
  <path d="m260.4 427.84s5.0391-3.9219 10.078-2.2383c5.0391 1.6797 11.762 1.1211 12.879 3.3594 1.1211 2.2383-4.4805 10.078-4.4805 10.078 0.003906 0-15.113-5.0391-18.477-11.199z"/>
  <path d="m216.16 161.84s1.6797-6.1602 5.6016-7.8398c4.4805-1.1211 7.8398-2.8008 10.641-3.3594 0.55859 0 5.0391 5.0391 5.0391 5.0391s-3.9219 5.0391-9.5195 5.6016c-5.6016 0.55859-8.4023-3.9219-11.762 0.55859z"/>
  <path d="m333.76 103.04s-3.3594 3.3594-2.2383 5.0391c1.1211 1.1211 10.078 5.6016 11.199 5.0391 0.55859-0.55859 2.8008-4.4805 1.1211-5.0391-1.6836-1.1172-10.082-5.0391-10.082-5.0391z"/>
  <path d="m329.28 115.36s3.9219 1.1211 6.1602 2.2383c2.2383 1.1211 3.9219 1.1211 2.2383 2.8008-1.6797 1.6797-3.3594 1.6797-3.3594 1.6797s-5.0391-3.3594-5.6016-2.2383c-0.55859 1.1211-3.3594 2.2383-1.6797 2.8008 1.6797 0.55859 5.0391 1.6797 5.0391 2.2383 0.55859 1.1211-1.1211 5.0391-2.2383 3.9219-1.1211-1.1211-8.9609-3.9219-7.8398-5.0391 1.1211-1.1211 6.7188-6.1602 7.2812-8.4023z"/>
  <path d="m316.96 128.8-3.9219 2.8008s5.0391 0 6.7188 1.6797c1.6797 1.6797 4.4805 2.8008 4.4805 2.8008l2.2383-2.2383s-3.3594-1.6797-4.4805-2.8008c-1.1172-2.2422-5.0352-2.2422-5.0352-2.2422z"/>
  <path d="m305.76 138.32-0.55859 6.1602s3.3594-0.55859 5.6016-1.1211c2.8008 0 6.1602 0 5.0391-1.6797-1.1211-1.6797-4.4805 0-5.6016-1.6797-0.003907-1.1211-4.4805-1.6797-4.4805-1.6797z"/>
  <path d="m340.48 121.52-2.2383 2.8008s3.9219 1.6797 4.4805 1.6797 2.8008-1.1211 1.6797-2.2383c-0.5625-0.5625-3.9219-2.2422-3.9219-2.2422z"/>
  <path d="m335.44 127.68-1.6797 2.2383s2.8008 1.6797 4.4805 1.6797c1.6797 0 2.2383-1.1211 1.1211-2.2383-1.125-1.1211-3.9219-1.6797-3.9219-1.6797z"/>
  <path d="m329.84 134.96-1.6797 2.2383h3.3594c2.8008 0.55859 3.3594-1.6797 1.1211-2.2383-2.2422-0.5625-2.8008 0-2.8008 0z"/>
  <path d="m350 403.2-14 7.2812 8.9609 5.0391s9.5195-3.9219 14.559-6.7188c-3.3594-1.6797-9.5195-5.6016-9.5195-5.6016z"/>
  <path d="m365.12 413.84-12.879 6.7188s7.8398 3.3594 8.9609 4.4805c3.3594-1.6797 7.2812-5.0391 11.199-6.7188-2.2422-1.1211-7.2812-4.4805-7.2812-4.4805z"/>
  <path d="m377.44 422.8-6.7188 5.0391s2.8008 1.6797 7.2812 2.8008c4.4805 1.1211 6.1602-1.6797 2.8008-5.0391-3.3633-3.3633-3.3633-2.8008-3.3633-2.8008z"/>
  <path d="m453.04 159.04c3.3594 2.2383 13.441 8.9609 15.121 10.641l2.8008-3.9219c-2.2383-1.1211-12.32-8.3984-15.68-10.641-5.0391-3.3594-13.441-15.121-12.879-17.922 1.1211-6.7188 12.879 6.1602 16.238 7.8398 3.3594 2.2383 15.121 10.641 18.48 12.32l2.8008-3.9219c-2.8008-1.6797-6.1602-3.9219-8.9609-6.1602-2.8008-2.2383-21.84-20.16-21.281-21.281 2.2383-3.3594 11.762 2.8008 14.559 4.4805 3.3594 2.2383 17.359 12.32 21.281 14.559l2.8008-3.9219c-3.9219-2.2383-7.8398-5.0391-12.32-7.8398-1.6797-1.1211-3.3594-5.6016-6.7188-8.3984-6.1602-5.6016-10.641-10.078-10.641-12.32 0-2.2383 6.1602 5.0391 13.441 8.3984 1.1211 0.55859 8.3984 0.55859 11.199 2.8008 3.9219 2.8008 7.8398 5.6016 11.762 7.8398l2.8008-3.9219c-3.9219-2.2383-18.48-17.922-25.199-20.16-2.2383-0.55859-18.48-21.281-18.48-21.84-0.55859-1.1211-7.2812-2.2383-10.078-2.2383-10.078-0.55859-10.641 6.7188-16.238 8.9609-5.6016 2.2383 1.6797 3.9219-6.1602-8.9609-7.8398-12.879-20.16-16.801-26.32-28-1.6797-2.8008-2.8008-5.6016-4.4805-5.6016h-20.16c-7.2812 5.0391-12.879 11.199-11.762 14 1.6797 3.3594-7.2812 1.1211-6.7188 10.078 0.55859 8.9609-1.1211 25.199-1.1211 25.199s10.641-4.4805 15.121-12.32c4.4805-7.8398 5.0391-0.55859 4.4805-7.8398-0.55859-7.2812 4.4805-21.281 12.879-14.559 8.3984 6.7188 3.3594 13.441 9.5195 17.359 6.1602 3.9219 4.4805 11.762-0.55859 10.641-4.4805-1.1211-2.2383 9.5195 3.9219 8.3984 6.1602-1.1211 8.9609 6.7188 10.641 8.3984 1.6797 1.6797 2.2383 7.8398-3.3594 7.8398-5.6016 0-16.238-7.8398-9.5195-0.55859 6.7188 7.8398 14.559 7.8398 21.84 15.68 6.7188 7.2812-7.2812 1.1211-0.55859 8.9609 6.7188 7.2812 8.3984 20.719 17.922 24.078 0.55859 0.55859 24.641 19.602 25.199 19.602l2.8008-3.9219c-0.55859 0-7.2812-5.0391-10.641-7.2812-6.1602-3.9219-18.48-25.762-16.801-28.559 3.3477-5.582 14.547 11.215 19.027 14.016z"/>
  <path d="m513.52 137.2 0.55859-0.55859-2.2383-3.9219c-3.3594-0.55859-6.7188-1.1211-10.078-2.8008l-2.8008 3.9219c4.4805 2.2383 8.3984 3.3594 13.441 3.9219 0.55859-0.5625 1.1172-0.5625 1.1172-0.5625z"/>
  <path d="m286.72 392.56c5.6016 2.8008 1.1211 3.9219-3.9219 3.9219-5.0391 0.55859-3.3594 0-6.1602 2.2383s-5.0391 1.1211-8.9609-1.1211c-3.9219-2.2383-5.0391-6.7188-14-6.1602-8.9609 0-6.1602 6.7188-8.9609 3.3594-2.8008-3.3594-9.5195 0.55859-9.5195 0.55859s3.3594 0 5.6016 2.8008c2.2383 2.8008-1.6797 1.1211-3.9219 2.8008-2.2383 1.6797 1.6797 6.7188 1.1211 8.3984-0.55859 1.1211-3.3594 1.6797-2.2383 5.0391 1.1211 3.3594 3.9219 3.9219 3.9219 6.1602 0 2.2383-3.3594-0.55859-8.3984 1.1211-1.6797 0.55859-2.8008 1.6797-3.3594 2.2383l3.9219 7.2812v-0.55859c2.8008-2.8008 4.4805-1.6797 7.2812 0 2.8008 1.6797 5.6016 2.8008 5.6016 2.8008s2.2383-2.8008 0-5.0391c-2.8008-2.2383-1.1211-6.7188 1.1211-6.1602 2.2383 0.55859 2.8008-3.9219 3.3594-6.1602 1.1211-2.2383-2.8008-6.1602 0.55859-11.762 3.3594-5.6016 6.1602-0.55859 10.078 5.0391 3.9219 5.6016 0 5.6016-2.8008 8.3984-2.8008 3.3594 0.55859 6.1602 5.0391 3.3594 5.0391-2.2383 11.199 0 16.801 1.1211 5.6016 1.1211 7.8398 3.9219 10.641 7.8398 2.8008 3.9219 3.3594-8.9609 3.9219-16.238 1.1211-6.7188-5.6016-5.6016-7.2812-9.5195-1.6797-3.9219 3.9219-3.3594 6.7188-5.0391 3.3594-1.6797 1.1211-7.2812-4.4805-12.879-4.4805-3.918-7.2812 3.3633-1.6836 6.1602z"/>
  <path d="m328.16 104.72c2.8008-3.3594 1.1211-8.3984-7.8398-8.9609-11.199-0.55859-18.48-5.0391-20.719-8.9609-2.8008-3.9219-10.641-19.039-16.238-14.559-3.9219 3.3594-16.801 7.8398-16.801 7.8398s-7.8398 9.5195-7.8398 24.078-3.9219 24.078-12.879 28c-8.3984 3.9219-6.7188 12.32-6.7188 12.32-1.6797 0.55859-2.8008 2.8008-2.8008 2.8008l5.0391 4.4805s19.039-0.55859 24.078-6.7188c5.0391-6.1602-1.6797-7.8398 0.55859-11.199s11.199-0.55859 7.8398-5.6016c-1.6797-2.2383-3.3594-4.4805-5.0391-5.6016 0.55859-2.2383 1.6797-4.4805 3.3594-7.8398 1.1211 0.55859 2.2383 0.55859 3.3594 0 3.3594-2.8008 5.0391-11.199 10.641-7.8398 6.1602 3.3594 15.121 6.1602 12.32 9.5195-2.8008 3.9219-9.5195 2.8008-10.078 9.5195-0.55859 6.1602-3.3594 14.559 0.55859 13.441 3.9219-1.1211 11.199 2.2383 11.199 2.2383v-3.3594s-6.7188-2.2383-6.1602-5.0391c0.55859-2.8008 2.2383-8.3984 6.7188-6.7188 4.4805 1.6797 7.2812 3.9219 7.2812 3.9219l5.0391-5.6016s-13.441 3.3594-10.078-2.8008c3.3594-6.1602 16.238 0.55859 16.238 0.55859s15.121-10.078 3.9219-10.641c-10.641-0.55859-17.922-1.1211-12.879-5.0391 5.0391-3.918 13.996 2.8047 17.918-2.2383z"/>
  <path d="m365.12 113.68s-1.1211 0-2.2383-0.55859l-2.8008 4.4805c2.2383 0.55859 3.9219 0.55859 3.9219 0.55859h0.55859c1.1211 0 2.2383-0.55859 2.2383-1.6797 0.55859-1.6797-0.5625-2.8008-1.6797-2.8008z"/>
  <path d="m357.84 112c-1.6797-0.55859-3.9219-0.55859-6.1602-1.1211l-2.8008 4.4805c2.2383 0.55859 4.4805 0.55859 6.1602 1.1211z"/>
  <use x="70" y="644" xlink:href="#v"/>
  <use x="90.550781" y="644" xlink:href="#b"/>
  <use x="104.359375" y="644" xlink:href="#a"/>
  <use x="123.347656" y="644" xlink:href="#f"/>
  <use x="142.242188" y="644" xlink:href="#c"/>
  <use x="155.628906" y="644" xlink:href="#a"/>
  <use x="174.617188" y="644" xlink:href="#m"/>
  <use x="204.410156" y="644" xlink:href="#e"/>
  <use x="224.453125" y="644" xlink:href="#l"/>
  <use x="252.453125" y="644" xlink:href="#k"/>
  <use x="274.011719" y="644" xlink:href="#d"/>
  <use x="293.25" y="644" xlink:href="#e"/>
  <use x="313.289062" y="644" xlink:href="#a"/>
  <use x="332.28125" y="644" xlink:href="#b"/>
  <use x="346.089844" y="644" xlink:href="#c"/>
  <use x="369.222656" y="644" xlink:href="#u"/>
  <use x="390.5625" y="644" xlink:href="#j"/>
  <use x="400.164062" y="644" xlink:href="#i"/>
  <use x="420.09375" y="644" xlink:href="#b"/>
  <use x="433.90625" y="644" xlink:href="#t"/>
  <use x="450.570312" y="644" xlink:href="#h"/>
  <use x="470.503906" y="644" xlink:href="#f"/>
  <use x="489.398438" y="644" xlink:href="#s"/>
  <use x="509.441406" y="644" xlink:href="#a"/>
  <use x="528.429687" y="644" xlink:href="#g"/>
  <use x="70" y="672" xlink:href="#r"/>
  <use x="82.183594" y="672" xlink:href="#b"/>
  <use x="95.992188" y="672" xlink:href="#d"/>
  <use x="115.226562" y="672" xlink:href="#q"/>
  <use x="154.152344" y="672" xlink:href="#c"/>
  <use x="167.535156" y="672" xlink:href="#h"/>
  <use x="187.46875" y="672" xlink:href="#a"/>
  <use x="216.207031" y="672" xlink:href="#p"/>
  <use x="239.640625" y="672" xlink:href="#d"/>
  <use x="258.878906" y="672" xlink:href="#i"/>
  <use x="278.8125" y="672" xlink:href="#g"/>
  <use x="308.492188" y="672" xlink:href="#o"/>
  <use x="329.015625" y="672" xlink:href="#b"/>
  <use x="342.820312" y="672" xlink:href="#d"/>
  <use x="362.058594" y="672" xlink:href="#j"/>
  <use x="371.65625" y="672" xlink:href="#a"/>
  <use x="390.648438" y="672" xlink:href="#n"/>
  <use x="407.242188" y="672" xlink:href="#c"/>
 </g>
</svg>
