<?xml version="1.0" encoding="UTF-8"?>
<svg width="700pt" height="700pt" version="1.1" viewBox="0 0 700 700" xmlns="http://www.w3.org/2000/svg" xmlns:xlink="http://www.w3.org/1999/xlink">
 <defs>
  <symbol id="w" overflow="visible">
   <path d="m0.03125 0h-0.015625-0.015625v-0.015625-0.015625h0.015625 0.015625-0.015625v0.015625 0.015625h0.015625v-0.015625z"/>
  </symbol>
  <symbol id="e" overflow="visible">
   <path d="m0.015625-0.015625v0.015625h-0.015625v-0.03125h0.015625v0.015625-0.015625z"/>
  </symbol>
  <symbol id="b" overflow="visible">
   <path d="m0.03125-0.015625h-0.015625v0.015625c0.0078125 0 0.015625-0.0039062 0.015625-0.015625v0.015625h-0.015625-0.015625v-0.015625l0.015625-0.015625v0.015625h0.015625z"/>
  </symbol>
  <symbol id="a" overflow="visible">
   <path d="m0.015625-0.015625v0.015625-0.015625zm0.015625 0v0.015625h-0.015625-0.015625v-0.015625h0.015625-0.015625v-0.015625h0.015625v0.015625h0.015625z"/>
  </symbol>
  <symbol id="d" overflow="visible">
   <path d="m0.015625-0.03125v0.015625 0.015625h-0.015625v-0.015625-0.015625z"/>
  </symbol>
  <symbol id="l" overflow="visible">
   <path d="m0.015625-0.015625v-0.015625h0.015625v0.03125h-0.015625-0.015625v-0.015625l0.015625-0.015625v0.015625zm0 0.015625v-0.015625 0.015625z"/>
  </symbol>
  <symbol id="k" overflow="visible">
   <path d="m0.015625 0v-0.015625 0.015625zm0-0.015625v-0.015625c0.0078125 0 0.015625 0.0078125 0.015625 0.015625v0.015625h-0.015625-0.015625v-0.03125h0.015625z"/>
  </symbol>
  <symbol id="j" overflow="visible">
   <path d="m0-0.03125h0.015625v0.015625-0.015625h0.015625l-0.015625 0.03125v0.015625h-0.015625v-0.015625h0.015625z"/>
  </symbol>
  <symbol id="i" overflow="visible">
   <path d="m0.015625-0.03125v0.015625 0.015625h0.015625v-0.015625c0-0.0078125-0.0078125-0.015625-0.015625-0.015625zm0 0h0.015625v0.015625 0.015625h-0.015625-0.015625v-0.015625-0.015625h0.015625z"/>
  </symbol>
  <symbol id="v" overflow="visible">
   <path d="m0-0.03125h0.015625v0.03125h-0.015625z"/>
  </symbol>
  <symbol id="f" overflow="visible">
   <path d="m0.03125-0.015625v0.015625h-0.015625v-0.015625 0.015625h-0.015625v-0.03125h0.015625v0.015625-0.015625c0.0078125 0 0.015625 0.0078125 0.015625 0.015625z"/>
  </symbol>
  <symbol id="h" overflow="visible">
   <path d="m0-0.03125h0.015625 0.015625v0.015625h-0.015625v0.015625h-0.015625zm0.015625 0v0.015625-0.015625z"/>
  </symbol>
  <symbol id="g" overflow="visible">
   <path d="m0.03125-0.03125v0.015625h-0.015625c0.0078125 0 0.015625 0.0078125 0.015625 0.015625h-0.015625-0.015625 0.015625v-0.015625h-0.015625l0.015625-0.015625h0.015625z"/>
  </symbol>
  <symbol id="c" overflow="visible">
   <path d="m0.015625-0.015625v0.015625-0.015625zm0-0.015625v0.015625h0.015625c0 0.011719-0.0078125 0.015625-0.015625 0.015625h-0.015625v-0.015625l0.015625-0.015625z"/>
  </symbol>
  <symbol id="u" overflow="visible">
   <path d="m0-0.03125h0.015625v0.015625-0.015625h0.015625l-0.015625 0.03125z"/>
  </symbol>
  <symbol id="t" overflow="visible">
   <path d="m0-0.03125h0.015625v0.015625-0.015625h0.015625l-0.015625 0.015625 0.015625 0.015625h-0.015625v-0.015625 0.015625h-0.015625z"/>
  </symbol>
  <symbol id="s" overflow="visible">
   <path d="m0.015625-0.03125v0.03125h-0.015625v-0.03125h0.015625z"/>
  </symbol>
  <symbol id="r" overflow="visible">
   <path d="m0.03125-0.015625v-0.015625c0.0078125 0 0.015625 0.0078125 0.015625 0.015625v0.015625h-0.015625v-0.015625 0.015625h-0.015625v-0.015625 0.015625h-0.015625v-0.03125h0.015625v0.015625-0.015625 0.015625h0.015625z"/>
  </symbol>
  <symbol id="q" overflow="visible">
   <path d="m0.03125-0.015625v0.015625h-0.015625v-0.015625 0.015625h-0.015625v-0.03125h0.015625v0.015625-0.015625c0.0078125 0 0.015625 0.0078125 0.015625 0.015625z"/>
  </symbol>
  <symbol id="p" overflow="visible">
   <path d="m0-0.03125h0.015625l0.015625 0.015625v-0.015625 0.03125l-0.015625-0.015625v0.015625h-0.015625z"/>
  </symbol>
  <symbol id="o" overflow="visible">
   <path d="m0-0.015625v-0.015625h0.015625v0.015625 0.015625-0.015625-0.015625h0.015625v0.03125h-0.015625-0.015625v-0.015625z"/>
  </symbol>
  <symbol id="n" overflow="visible">
   <path d="m0-0.03125h0.015625v0.03125h-0.015625v0.015625zm0 0h0.015625z"/>
  </symbol>
  <symbol id="m" overflow="visible">
   <path d="m0.03125-0.03125v0.015625h-0.015625v0.015625h0.015625-0.015625-0.015625v-0.015625l0.015625-0.015625h0.015625z"/>
  </symbol>
 </defs>
 <g>
  <path d="m80.078 323.92c2.2227-15.855 5.2422-30.164 10.375-43.215 5.1953-13.207 12.523-25.086 23.32-35.898 4.2266-4.2344 7.1211-6.5625 9.9922-7.8281 3.1602-1.3906 5.8711-1.4375 9.6602-1.1016 14.996 1.3281 32.527-37.848 44.109-63.73 2.2422-5.0117 4.2812-9.5625 5.8242-12.805 2.2852-4.793 6.1836-6.9805 10.941-7.8438 4.1016-0.74609 8.6055-0.42969 13.195-0.09375 9.7148 0.71484 26.453-29.645 36.977-48.727 0.57422-1.043 1.1172-2.0234 2.6562-4.7891 1.3672-2.4531 4.4492-4.5859 7.1602-6.457 0.64063-0.44141 0.33203-0.22266 0.80469-0.55469 1.8438-1.2852 1.4688-2.9805 0.89844-5.5586h-0.015626l-0.089843-0.40234v-0.015624c-0.73047-3.3242 0.070312-7.9219 1.5117-12.812 1.3516-4.582 3.2031-9.3516 4.8398-13.48 4.2617-10.766 9.3281-11.324 18.402-12.324 0.46094-0.050781 0.92969-0.10156 1.4141-0.15625 7.8164-0.89062 16.145-19.082 22.039-31.953 1.0273-2.2461-0.03125 0.050781 1.0352-2.2734 1.2969-2.8203 3.125-4.8516 5.2422-6.1133 1.5742-0.9375 3.2773-1.4297 5.0234-1.4844 1.7148-0.054687 3.4375 0.30469 5.0977 1.0703 2.6719 1.2305 5.2031 3.543 7.1914 6.8828 4.207 7.0664 7.2109 18.133 10.207 29.172 2.125 7.8281 4.2461 15.641 6.668 21.613 1.5898 3.9102 2.918 5.75 4.4375 6.4688 1.5938 0.75391 4.1289 0.64063 7.6289 0.47656 15.324-0.71875 23.184 28.262 28.441 47.633 0.6875 2.5391 0.95312 3.543 1.1523 4.2578 1.8516 6.6953 5.9258 6.3398 12.809 5.7383 0.35938-0.03125 0.69141-0.0625 1.6055-0.13672 11.574-0.96875 17.234 21.754 24.32 50.188 3.0547 12.262 6.3984 25.668 10.434 38.535 1.2539-1.3086 2.3828-2.9805 3.2188-4.9023 1.3125-3.0234 1.8203-6.625 0.81641-10.336-0.25-0.92578-0.42578-1.9453-0.52734-3.0352-0.49219-5.3672 1.2695-11.555 4.9844-16.84 3.6758-5.2266 9.2773-9.6562 16.5-11.613 1.6133-0.4375 3.3594-0.75391 5.2383-0.92578 7.9648-0.73438 16.25-15.375 22.109-25.73 0.35547-0.625 0.69922-1.2344 1.0352-1.8281 0.95703-1.6836 2.1641-3.0234 3.5352-4.0352 1.9844-1.4609 4.2969-2.2031 6.6992-2.2461 2.293-0.042969 4.6328 0.56641 6.8047 1.8008 1.9023 1.082 3.6836 2.6484 5.1758 4.6758 4.25 5.7773 7.2891 14.84 10.324 23.879 2.1133 6.3008 4.2227 12.586 6.6133 17.348 1.5078 3.0039 2.8008 4.4258 4.3086 5.0039 1.7383 0.66406 4.3359 0.57422 7.9219 0.4375 15.117-0.57422 23.043 23.062 28.34 38.859 0.26953 0.80469 0.53125 1.582 1.168 3.4414 1.7461 5.1172 5.9023 4.8242 12.926 4.3281 0.34766-0.023438 0.71484-0.050781 1.6055-0.10938 11.508-0.77734 15.461 22.398 20.375 51.195 4.6367 27.191 10.199 59.793 22.066 79.602 1.0547 1.7656 0.48047 4.0508-1.2852 5.1055-1.7656 1.0547-4.0508 0.48047-5.1055-1.2852-12.598-21.035-18.285-54.367-23.027-82.168-4.2852-25.117-7.7344-45.336-12.527-45.012l-1.5742 0.10938c-10.617 0.75-16.902 1.1953-20.512-9.3711-0.10938-0.32422-0.625-1.8633-1.168-3.4727-4.5859-13.68-11.449-34.145-21.016-33.785-4.4805 0.16797-7.7422 0.28125-10.836-0.90234-3.3242-1.2734-5.8438-3.75-8.3047-8.6484-2.6484-5.2734-4.832-11.785-7.0195-18.309-2.8438-8.4766-5.6914-16.973-9.2734-21.836-0.85156-1.1562-1.8242-2.0273-2.8398-2.6055-0.097657-0.054687-0.19922-0.10938-0.29688-0.16016 0.89062 2.5508 1.5234 5.2344 1.9336 8.125 0.6875 4.8594 0.74609 10.281 0.33594 16.613-0.69922 10.844-5.5 11.988-13.977 14.008-1.4023 0.33203 0.17578-0.050781-1.2227 0.28516-1.2422 0.30078-2.0977 0.66797-2.6289 1.0859-0.375 0.29297-0.51953 0.63672-0.48438 1.0039 0.0625 0.71875 0.51172 1.6172 1.2188 2.6133 1.793 2.5234 5.0078 5.3047 8.2188 7.6953 1.207 0.90234 2.0898 1.8672 2.6836 2.8789 0.88281 1.5039 1.1289 3.0508 0.85938 4.6172-0.24219 1.4102-0.90625 2.7812-1.8906 4.1016-2.0625 2.7695-5.6445 5.4141-9.5508 7.707-5.5117 3.2344-3.2969 8.7461-0.38672 15.965 0.027343 0.0625 0.054687 0.125 0.078125 0.19141 0.19531 0.5 0.35547 1.0078 0.48047 1.5273 3.125 9.8516 6.6641 19.297 10.543 28.312 4.25 9.8867 8.8984 19.234 13.848 28.02 13.062 23.191 28.211 42.469 43.609 57.324 16.852 16.258 33.973 27.199 48.941 32.145 1.2227 0.40234 1.8867 1.7227 1.4844 2.9453-0.40234 1.2227-1.7227 1.8867-2.9453 1.4844-15.598-5.1523-33.34-16.461-50.711-33.219-15.715-15.16-31.156-34.805-44.449-58.398-5.0312-8.9336-9.7539-18.426-14.066-28.457-2.668-6.207-5.1836-12.621-7.5195-19.246-2.6758 7.1719-8.5977 15.562-17 23.945-12.809 12.777-31.492 25.793-53.164 34.539-6.3086 2.5469-12.867 4.7305-19.602 6.4453 6.4805 14.906 14.457 23.852 24.316 28.203 10.648 4.6992 46.336 3.3555 69.438 2.4844l1.418-0.054688c17.398-0.65234 24.504 7.1953 34.496 18.223 0.80469 0.89062 1.6328 1.8008 2.3672 2.6055 2.3242 2.5391 3.4688 5.2695 3.6875 8.125 0.93359 6.2617 0.57422 13.02 0.22266 19.617-0.49609 9.3516-0.97656 18.359 2.4258 24.199 3.6914-0.90234 7.4023-1.9648 11.109-3.0273 6.2969-1.8047 12.574-3.6016 18.867-4.6406 12.512-2.0703 23.773 3.8281 33.398 13.043 9.3398 8.9414 17.133 21.027 22.973 31.809l-4.1016 2.207c-5.6562-10.441-13.172-22.113-22.098-30.66-8.6406-8.2734-18.605-13.59-29.422-11.801-5.9453 0.98438-12.129 2.7539-18.336 4.5312-8.5781 2.457-17.203 4.9258-25.82 5.4961-8.3164 0.55078-14.094 0.0625-17.695-1.2773-2.4844-0.92578-4.0898-2.2852-4.8945-4.0273-0.83203-1.7969-0.74609-3.8164 0.16016-6.0234 1.1953-2.9141 3.9414-6.2773 7.9375-9.9531 6.5977-6.0703 13.414-12.777 17.348-19.129 3.5391-5.7188 4.6797-11.129 0.81641-15.348-0.89453-0.97656-1.6484-1.8086-2.3867-2.625-9.1367-10.09-15.641-17.266-30.887-16.691l-1.418 0.054687c-23.523 0.88672-59.871 2.2578-71.477-2.8672-11.504-5.0781-20.59-15.531-27.742-33.074-0.039063-0.082031-0.074219-0.17188-0.10547-0.25781-0.59375-1.4648-1.1719-2.9766-1.7383-4.5391-6.8008-18.773-11.754-44.906-15.355-80.188-0.38672 0.40234-0.79297 0.8125-1.2148 1.2305-6.4766 6.3945-18.43 14.688-27.66 20.73-6.6328 4.3438-12.648 7.3008-18.629 9.5742-5.9258 2.2539-11.805 3.8281-18.219 5.4219-21.176 5.2656-36.09 23.961-50.316 41.801-1.3945 1.75-2.7852 3.4922-4.3789 5.4648-12.465 15.434-49.879 18-79.051 20.004-4.0391 0.27734-7.9102 0.54297-11.781 0.85156-3.5352 0.28125-5.9531 0.93359-7.4375 1.8672-1.0039 0.63281-1.4961 1.3945-1.5664 2.25-0.09375 1.1094 0.36328 2.4805 1.2539 4.0273 2.1719 3.7773 6.6797 8.1953 12.246 12.48 4.7344 3.6445 6.2695 7.2148 5.5898 10.797 0.15234 5.8164 0.47266 11.445 0.99609 16.859 0.58594 6.1016 1.4297 11.922 2.5625 17.418 1.2852 6.2266 2.9531 12.047 5.0625 17.398 2.082 5.2891 4.5977 10.098 7.5977 14.371 3.2656 4.6484 7.1094 8.6641 11.602 11.961 4.5 3.3047 9.668 5.8984 15.574 7.7148 1.2266 0.37891 1.918 1.6797 1.5391 2.9062-0.37891 1.2266-1.6797 1.918-2.9062 1.5391-6.4219-1.9727-12.047-4.8008-16.961-8.4062-4.918-3.6094-9.1094-7.9844-12.66-13.035-3.2188-4.582-5.9062-9.7227-8.125-15.355-2.1953-5.5703-3.9336-11.648-5.2812-18.164-1.168-5.6562-2.0312-11.641-2.6367-17.91-0.30469-3.1641-0.54297-6.4062-0.71875-9.7188-3.4961 3.793-8.7734 7.5586-14.387 11.559l-0.058594 0.042969c-18.203 12.98-40.227 17.617-62.02 22.207-6.0938 1.2852-12.172 2.5625-18.043 4l-1.0938-4.5195c6.043-1.4766 12.105-2.7539 18.188-4.0352 21.316-4.4883 42.859-9.0273 60.27-21.441l0.058594-0.042969c6.1562-4.3906 11.895-8.4805 14.844-12.312 2.5742-3.3438 2.707-6.6445-1.8398-10.148-6.0039-4.625-10.934-9.5039-13.43-13.848-1.3594-2.3672-2.0469-4.6406-1.8711-6.7227 0.19531-2.3359 1.3711-4.3164 3.7383-5.8047 2.1172-1.332 5.2383-2.2344 9.5508-2.5781 3.5352-0.28125 7.5977-0.5625 11.836-0.85156 28.281-1.9414 64.551-4.4297 75.73-18.27 1.3125-1.625 2.8359-3.5312 4.3633-5.4492 14.711-18.441 30.129-37.773 52.852-43.422 6.2266-1.5469 11.934-3.0742 17.672-5.2578 5.6836-2.1641 11.41-4.9766 17.734-9.1172 9.0664-5.9375 20.766-14.043 26.949-20.148 3.5156-3.4688 3.8477-5.8359-3.6953-4.7695-0.53516 0.074218-1.6211 0.23437-2.7227 0.39453-14.906 2.1641-34.215 4.9688-38.922-8.0078-1.1914-3.2852-2.543-4.6406-4.5039-4.4414-2.7617 0.27734-6.8477 2.6172-12.762 6.5195-4.3828 2.8906-8.5664 5.8984-12.645 8.8281-12.387 8.9023-23.84 17.133-39.066 20.875-17.34 4.2578-31.023 7.1406-40.051 6.8555-8.9375-0.28125-13.754-3.332-13.633-10.457-6.7109 3.0391-13.32 5.9023-18.945 8.3398l-2.4336 1.0547c-3.5117 1.5234-5.957 2.8047-7.3438 4.0586-0.89062 0.80469-1.2148 1.5703-1 2.4219 0.28516 1.1328 0.67188 2.2578 1.0391 3.3203 2.4648 7.168 4.1367 12.016-13.84 19.262-4.2695 1.7227-9.2031 3.3945-14.504 5.1914-20.051 6.8047-45.449 15.422-54.996 33.516-0.75391 4.0742-1.418 8.2695-2.0234 12.586l-7.3789-1.0195zm423.02 166.44c2.1992 0 4.1328 1.0586 5.4805 2.7734 1.1484 1.4609 1.8594 3.4258 1.8594 5.5469 0 2.1211-0.71094 4.0859-1.8594 5.5469-0.39453 0.50391-0.84375 0.94922-1.332 1.332 0.046875 0.21875 0.097656 0.40625 0.14844 0.55469l0.027343 0.003907c1.4414 0.22266 2.4414 0.37891 3.8789 2.4297 3.9141 5.5938 1.6094 24.801 0.20312 36.527-0.38281 3.1758-0.69141 5.7773-0.78125 7.1367-0.12891 2.0547-1.8984 3.6133-3.9531 3.4844-1.6914-0.10547-3.0469-1.3242-3.4023-2.8984-0.35547 1.5742-1.7109 2.7891-3.4023 2.8984-2.0547 0.12891-3.8242-1.4297-3.9531-3.4844-0.089844-1.3594-0.40234-3.9609-0.78125-7.1367-1.4258-11.895-3.7734-31.469 0.42578-36.832 1.3477-1.7227 2.4023-1.9414 3.6445-2.1406l0.058593-0.011718c0.019531-0.058594 0.039063-0.125 0.058594-0.19531-0.67578-0.44141-1.2812-1.0078-1.8008-1.668-1.1484-1.4609-1.8594-3.4258-1.8594-5.5469 0-2.1211 0.71094-4.0859 1.8594-5.5469 1.3477-1.7148 3.2773-2.7734 5.4805-2.7734zm-2.1875 37.59 4.9023 0.070312c0.51953-6.5156 0.64453-12.387-0.33203-14.695-0.09375-0.023438-0.19141-0.046875-0.28906-0.074219-0.69531-0.19922-1.3008-0.46094-1.832-0.77734-0.37891 0.22656-0.79688 0.42578-1.2578 0.59375-0.32422 0.12109-0.60938 0.19531-0.87109 0.25391-0.98438 2.1914-0.84766 8.0703-0.32422 14.629zm4.1953 7.5-3.4844-0.050781c0.33594 3.1367 0.70312 6.1797 1.0156 8.8047 0.3125 2.6016 0.57812 4.8203 0.72656 6.4844 0.14844-1.668 0.41406-3.8828 0.72656-6.4844 0.3125-2.6133 0.67578-5.6328 1.0117-8.7539zm18.211-149.32c-0.066406 1.5625-0.14844 3.1016-0.23047 4.6289-0.42969 8.0508-0.84375 15.855 1.1953 21.738 1.9336-0.23438 3.8828-0.5625 5.8438-0.95313-3.3477-6.8945-2.8633-16.031-2.3594-25.492 0.11328-2.1055 0.22656-4.2266 0.29297-6.332-1.3398 2.1328-2.9531 4.2773-4.7461 6.4102zm-1.8789 26.645c-1.9805-6.2969-1.5664-14.105-1.1367-22.156l0.058593-1.1406c-3.2188 3.4805-6.7891 6.8867-10.289 10.109-3.5078 3.2305-5.8633 6.043-6.7891 8.2969-0.39844 0.97266-0.48828 1.75-0.23047 2.3047 0.28125 0.60938 1.0273 1.1523 2.2891 1.6211 2.9883 1.1133 8.125 1.4961 15.781 0.98828 0.10547-0.007813 0.21094-0.015625 0.31641-0.023438zm-395.43-339.41c2.0938-2.4336 4.5312-4.3672 7.25-5.8398 3.2188-1.7422 6.8359-2.8281 10.758-3.332 0.76562-0.097656 1.4609 0.44531 1.5586 1.207 0.097656 0.76562-0.44531 1.4609-1.207 1.5586-3.5742 0.45703-6.8633 1.4453-9.7852 3.0234-2.75 1.4844-5.1719 3.5-7.1875 6.0898l-0.050781 0.070312c-0.47656 0.60547-1.3555 0.71094-1.9648 0.23438-2.7188-2.1328-5.7109-3.5391-8.9062-4.2969-3.3789-0.79687-6.9922-0.875-10.766-0.32422-0.76562 0.11328-1.4727-0.41797-1.5859-1.1797-0.11328-0.76562 0.41797-1.4727 1.1797-1.5859 4.1133-0.60156 8.0781-0.51172 11.805 0.36719 3.1641 0.75 6.1484 2.0625 8.8984 4zm-1.1992-9.1875c3.2148-3.5156 7.1523-5.957 11.633-7.4375 5.3945-1.7812 11.555-2.1641 18.164-1.3594 1.2773 0.15234 2.1914 1.3086 2.043 2.5898-0.15234 1.2773-1.3086 2.1914-2.5898 2.043-5.9531-0.72266-11.438-0.40234-16.16 1.1602-4.2812 1.4141-7.9531 3.8594-10.789 7.4805-0.027344 0.039063-0.054687 0.078125-0.085937 0.11328-0.79688 1.0117-2.2617 1.1875-3.2734 0.39063-2.6094-2.0469-5.4766-3.3945-8.543-4.1211-3.2617-0.76953-6.7617-0.84375-10.418-0.30859-1.2734 0.1875-2.457-0.69531-2.6445-1.9688s0.69531-2.457 1.9688-2.6445c4.2305-0.62109 8.3086-0.52734 12.152 0.38281 3.0195 0.71484 5.8789 1.9258 8.5352 3.6797zm62.504-26.266c2.0938-2.4336 4.5312-4.3672 7.25-5.8398 3.2188-1.7422 6.8359-2.8281 10.758-3.332 0.76563-0.097657 1.4609 0.44531 1.5586 1.207 0.097656 0.76562-0.44531 1.4609-1.207 1.5586-3.5742 0.45703-6.8633 1.4453-9.7852 3.0234-2.75 1.4844-5.1719 3.5-7.1875 6.0898l-0.050781 0.070313c-0.47656 0.60547-1.3555 0.71094-1.9648 0.23437-2.7188-2.1328-5.7109-3.5391-8.9062-4.2969-3.3789-0.79688-6.9922-0.875-10.766-0.32422-0.76562 0.11328-1.4727-0.41797-1.5859-1.1797-0.11328-0.76562 0.41797-1.4727 1.1797-1.5859 4.1133-0.60156 8.0781-0.51172 11.805 0.36719 3.1641 0.75 6.1484 2.0625 8.8984 4zm-1.1992-9.1875c3.2148-3.5156 7.1523-5.957 11.633-7.4375 5.3945-1.7812 11.555-2.1641 18.164-1.3594 1.2773 0.15234 2.1914 1.3086 2.043 2.5898-0.15234 1.2773-1.3086 2.1914-2.5898 2.043-5.9531-0.72266-11.438-0.40234-16.16 1.1602-4.2812 1.4141-7.9531 3.8594-10.789 7.4805-0.027343 0.039063-0.054687 0.078125-0.085937 0.11328-0.79688 1.0117-2.2617 1.1875-3.2734 0.39062-2.6094-2.0469-5.4766-3.3945-8.543-4.1211-3.2617-0.76953-6.7617-0.84375-10.418-0.30859-1.2734 0.1875-2.457-0.69531-2.6445-1.9688s0.69531-2.457 1.9688-2.6445c4.2305-0.62109 8.3086-0.52734 12.152 0.38281 3.0195 0.71484 5.8789 1.9258 8.5352 3.6797zm362.96 432.76c2.5703 0 4.8359 1.25 6.4219 3.2695 1.3906 1.7695 2.25 4.1562 2.25 6.75 0 2.5898-0.85938 4.9805-2.25 6.75-0.65234 0.82812-1.418 1.5273-2.2695 2.0625 0.18359 0.95312 0.36719 1.7812 0.61719 2.2695 0.085938 0.16797 0.23438 0.29688 0.51953 0.37891 0.19922 0.058594 0.31641 0.074219 0.42578 0.089844 1.6328 0.25391 2.7656 0.42578 4.3984 2.7578 5.0586 7.2266 1.9414 33.234 0.035156 49.109-0.52344 4.3555-0.94922 7.9219-1.0781 9.8555-0.12891 2.0547-1.8984 3.6133-3.9531 3.4844-2.0547-0.12891-3.6133-1.8984-3.4844-3.9531 0.15234-2.2969 0.58203-5.8828 1.1055-10.262 0.48047-4.0039 1.043-8.6992 1.543-13.516l-7.8359-0.11328c0.50391 4.8555 1.0703 9.5938 1.5547 13.629 0.52344 4.3789 0.95312 7.9648 1.1055 10.262 0.12891 2.0547-1.4297 3.8242-3.4844 3.9531-2.0547 0.12891-3.8242-1.4297-3.9531-3.4844-0.12891-1.9297-0.55469-5.4961-1.0781-9.8516-1.9297-16.09-5.1055-42.57 0.30078-49.469 1.582-2.0234 2.8125-2.2148 4.2891-2.4492 0.14844-0.023438 0.30469-0.046875 0.41406-0.089844 0.20312-0.074219 0.33203-0.21875 0.42188-0.40625 0.20312-0.42578 0.36328-1.0664 0.51562-1.8125-1.1328-0.56641-2.1367-1.4062-2.957-2.4492-1.3906-1.7695-2.25-4.1602-2.25-6.75 0-2.5898 0.85938-4.9805 2.25-6.75 1.5859-2.0195 3.8555-3.2695 6.4219-3.2695zm0.5625 7.8789c-0.19922-0.25391-0.40234-0.41406-0.5625-0.41406-0.15625 0-0.35938 0.15625-0.5625 0.41406-0.39844 0.50781-0.64453 1.2617-0.64453 2.1406 0 0.87891 0.24609 1.6328 0.64453 2.1406 0.19922 0.25391 0.40234 0.41406 0.5625 0.41406 0.15625 0 0.35938-0.15625 0.5625-0.41406 0.39844-0.50781 0.64453-1.2617 0.64453-2.1406 0-0.87891-0.24609-1.6328-0.64453-2.1406zm-4.8125 43.613 9.2305 0.13281c0.83594-10.18 1.043-19.586-0.79297-22.762-0.29688-0.050782-0.61328-0.11328-0.9375-0.20313-1.1562-0.32812-2.1016-0.80859-2.8789-1.4141-0.62109 0.47656-1.3477 0.87891-2.207 1.1953-0.62891 0.23047-1.1367 0.32813-1.6055 0.40625-1.8594 3-1.6523 12.414-0.80859 22.648zm-384.9-112.89c-0.25781-1.2578 0.55469-2.4883 1.8125-2.7422 1.2578-0.25781 2.4883 0.55469 2.7422 1.8125 1.2852 6.2266 2.9531 12.047 5.0625 17.398 2.082 5.2891 4.5977 10.098 7.5977 14.371 0.73828 1.0508 0.48828 2.5039-0.56641 3.2461-1.0508 0.73828-2.5039 0.48828-3.2461-0.56641-3.2188-4.582-5.9062-9.7227-8.125-15.355-2.1953-5.5703-3.9336-11.648-5.2812-18.164zm323.31-128.08c-0.52344-1.1719 0.003906-2.5469 1.1758-3.0703s2.5469 0.003906 3.0703 1.1758c3.3828 7.6055 6.9961 14.906 10.797 21.895 3.9141 7.1992 8.0586 14.113 12.391 20.734 0.70312 1.0781 0.40234 2.5234-0.67578 3.2266s-2.5234 0.40234-3.2266-0.67578c-4.3438-6.6445-8.5508-13.664-12.57-21.062-3.8633-7.1094-7.5312-14.52-10.961-22.223zm-124.32-13.348c-0.21484-1.2695 0.63672-2.4727 1.9062-2.6875 1.2695-0.21484 2.4727 0.63672 2.6875 1.9062 0.61719 3.5859 1.1367 6.9727 1.6523 10.344 1.6484 10.777 3.2695 21.371 7.1484 32.766 0.41406 1.2188-0.23828 2.5391-1.457 2.9531-1.2188 0.41406-2.5391-0.23828-2.9531-1.457-4.0195-11.805-5.6719-22.594-7.3477-33.566-0.52734-3.4375-1.0547-6.8906-1.6328-10.25zm124.08-26.203c-0.125-0.39453-0.25-0.79297-0.375-1.1914-3.7617-9.3164-6.6172-16.434 2.3555-21.703 3.4297-2.0156 6.5195-4.2578 8.1641-6.4688 0.55859-0.74609 0.92188-1.4609 1.0352-2.1172 0.085937-0.5 0.007812-0.99609-0.27734-1.4805-0.28125-0.48047-0.75391-0.97656-1.4453-1.4922-3.5391-2.6367-7.1289-5.7656-9.2383-8.7344-1.1758-1.6562-1.9375-3.3164-2.0781-4.9102-0.16797-1.9453 0.49609-3.6797 2.2734-5.0703 1.043-0.81641 2.4883-1.4805 4.3984-1.9414 0.99219-0.23828 1.2305-0.30078 1.2422-0.30469-0.015626 0.003906-0.32031 0.074218 0 0 6.3359-1.5117 9.9258-2.3672 10.402-9.7578 0.39062-6.0312 0.34375-11.16-0.30078-15.684-0.44922-3.1641-1.1914-6.043-2.2812-8.7422-0.058594 0.039062-0.11328 0.078125-0.16797 0.11719-0.55078 0.40234-1.0469 0.96875-1.4648 1.7031-0.33594 0.59375-0.68359 1.2031-1.0352 1.8281-6.6523 11.754-16.055 28.371-27.914 29.465-1.332 0.12109-2.6523 0.36719-3.9531 0.72266-5.4141 1.4688-9.6055 4.7812-12.359 8.6992-2.7109 3.8555-4.0078 8.2148-3.6719 11.883 0.050781 0.5625 0.16016 1.1484 0.32422 1.7539 1.4883 5.4922 0.74219 10.809-1.1953 15.266-1.7461 4.0195-4.5273 7.3711-7.543 9.5391 6.0586 17.59 13.637 33.453 23.867 42.977 1.4648-1.332 2.8672-2.668 4.2031-4 12.008-11.977 18.582-23.469 17.035-30.352zm-26.902 39.234c-20.242-19.473-30.281-59.75-38.371-92.227-6.2266-24.996-11.207-44.969-16.477-44.527l-1.5742 0.13672c-10.758 0.94141-17.121 1.4961-20.629-11.191-0.94531-3.418-1.0586-3.8438-1.1797-4.2891-4.6289-17.062-11.555-42.59-20.914-42.152-4.5664 0.21484-7.8906 0.35547-11.129-1.1797-3.3125-1.5664-5.793-4.5508-8.1719-10.406-2.6133-6.4336-4.7852-14.438-6.9609-22.457-2.8789-10.609-5.7656-21.25-9.3906-27.336-1.168-1.9648-2.543-3.2734-3.9219-3.9102-0.60938-0.28125-1.1992-0.41406-1.7422-0.39844-0.50781 0.015625-1.0039 0.16016-1.4648 0.43359-0.83594 0.49609-1.6172 1.4375-2.2656 2.8477-1.7422 3.7891-0.71484 1.543-1.0352 2.2461-1.918 4.1875-4.0664 8.8789-6.4414 13.461 0.46484 1.6445 1.0078 3.4727 1.5898 5.4297 3.8828 13.082 9.4492 31.828 5.2461 40.559-3.0547 6.3516-8.543 10.426-14.031 14.5l-0.21094 0.15625c-5.2812 3.9219-5.9883 6.9414-4.0625 9.5312 2.9453 3.9648 10.82 7.7734 19.297 11.871 1.082 0.52344 2.1836 1.0547 4.1641 2.0312 10.969 5.3906 10.391 11.297 4.2969 17.316-1.6953 1.6758-3.8945 3.3398-6.4023 4.9844 6.8555 13.5-2.6875 22.609-17.105 30.371-5.8047 3.125-12.355 6.0078-18.895 8.8789-3.9297 1.7266-7.8516 3.4531-11.469 5.1602-9.4453 4.4609-17.164 16.383-23.961 26.875-1.0273 1.5859-2.0352 3.1406-2.8047 4.3086-3.543 5.3633-18.305 13.105-33.664 20.234-0.83594 5.5391 2.3633 7.8516 8.875 8.0586 8.4766 0.26953 21.812-2.5547 38.793-6.7266 14.367-3.5312 25.465-11.504 37.461-20.129 4.0898-2.9375 8.2773-5.9492 12.809-8.9375 6.5195-4.3008 11.176-6.8945 14.859-7.2656 4.4844-0.45312 7.2812 1.832 9.332 7.4883 3.4102 9.4062 20.613 6.9102 33.891 4.9805 0.75781-0.10938 1.5-0.21875 2.7383-0.39453 13.359-1.8906 16.117 1.0117 12.969 6.293 3.5977 37.281 8.6055 64.543 15.574 83.781 0.32422 0.89453 0.65234 1.7734 0.98828 2.6367 6.7695-1.6875 13.348-3.8633 19.656-6.4102 16.016-6.4648 30.34-15.316 41.746-24.637zm-204.69-118.78c0.97266-0.83984 2.4414-0.73438 3.2812 0.23828 0.83984 0.97266 0.73438 2.4414-0.23828 3.2812l-14.324 12.348c-0.97266 0.83984-2.4414 0.73438-3.2812-0.23828s-0.73438-2.4414 0.23828-3.2812zm38.844-47.977c-1.5195 5.3359-3.4297 10.395-5.9336 15.109-3.4883 6.5742-8.1055 12.477-14.359 17.539-0.99609 0.80859-2.4609 0.66016-3.2734-0.33594-0.80859-0.99609-0.66016-2.4609 0.33594-3.2734 5.7344-4.6445 9.9727-10.059 13.176-16.102 3.1328-5.9062 5.2969-12.422 6.9102-19.398-0.19141-3.3633 1.8984-6.9258 7.1406-10.82l0.21094-0.15625c5.0312-3.7344 10.059-7.4688 12.609-12.77 3.4219-7.1172-1.8438-24.859-5.5195-37.242l-0.28906-0.97656c-5.2031 8.8711-11.336 16.238-18.379 17.039-0.48437 0.054688-0.95703 0.10547-1.4141 0.15625-6.2031 0.68359-9.668 1.0625-12.277 7.6562-1.6055 4.0586-3.418 8.7188-4.6328 12.836-1.1211 3.8047-1.7891 7.1719-1.3672 9.125h0.003906l0.089844 0.40234-0.015625 0.003906c1.2148 5.5078 2.0117 9.1328-3.9023 13.258-1.0078 0.70312-0.75391 0.52734-0.83594 0.58203-2.043 1.4102-4.3633 3.0156-4.8828 3.9492l-2.625 4.7617c-11.414 20.703-29.574 53.641-44.035 52.578-4.1562-0.30469-8.2266-0.59375-11.355-0.023438-2.4688 0.44922-4.4531 1.4961-5.5156 3.7305-1.875 3.9375-3.7266 8.0742-5.7656 12.629-12.449 27.82-31.297 69.93-51.551 68.137-2.5977-0.23047-4.3633-0.23828-6.0156 0.49219-1.9453 0.85547-4.1992 2.7266-7.7188 6.2539-10.016 10.035-16.824 21.074-21.656 33.363-2.2031 5.6016-4 11.473-5.5078 17.633 12.602-13.562 33.758-20.742 51.094-26.621 5.2617-1.7852 10.164-3.4492 14.266-5.1016 13.859-5.5859 12.77-8.75 11.16-13.43-0.38672-1.1289-0.80078-2.3281-1.1484-3.7031-0.68359-2.707 0.097656-4.9141 2.4023-6.9961 1.8086-1.6367 4.6562-3.1602 8.6172-4.8789l2.4336-1.0547c19.391-8.3984 50.762-21.988 55.477-29.129 1.0625-1.6094 1.918-2.9297 2.7891-4.2734 7.1328-11.012 15.238-23.523 25.875-28.551 3.8164-1.8047 7.6953-3.5078 11.578-5.2148 6.4727-2.8477 12.961-5.6992 18.566-8.7148 11.98-6.4531 20.098-13.758 15.328-23.812-3.9453 2.3086-8.332 4.5742-12.621 6.7852-1.1445 0.58984-2.5469 0.14062-3.1367-1.0039-0.58984-1.1445-0.14062-2.5469 1.0039-3.1367 8.5117-4.3867 17.418-8.9961 21.879-13.406 3.332-3.2891 3.4648-6.6094-3.0781-9.8242-0.79688-0.39063-2.4805-1.2031-4.1484-2.0117-8.2383-3.9844-15.941-7.707-19.977-12.055z"/>
  <use x="70" y="560.140625" xlink:href="#w"/>
  <use x="70.035156" y="560.140625" xlink:href="#e"/>
  <use x="70.058594" y="560.140625" xlink:href="#b"/>
  <use x="70.089844" y="560.140625" xlink:href="#a"/>
  <use x="70.121094" y="560.140625" xlink:href="#d"/>
  <use x="70.144531" y="560.140625" xlink:href="#b"/>
  <use x="70.175781" y="560.140625" xlink:href="#l"/>
  <use x="70.222656" y="560.140625" xlink:href="#k"/>
  <use x="70.257812" y="560.140625" xlink:href="#j"/>
  <use x="70.304688" y="560.140625" xlink:href="#i"/>
  <use x="70.34375" y="560.140625" xlink:href="#v"/>
  <use x="70.359375" y="560.140625" xlink:href="#b"/>
  <use x="70.390625" y="560.140625" xlink:href="#f"/>
  <use x="70.425781" y="560.140625" xlink:href="#a"/>
  <use x="70.472656" y="560.140625" xlink:href="#h"/>
  <use x="70.507812" y="560.140625" xlink:href="#a"/>
  <use x="70.539062" y="560.140625" xlink:href="#f"/>
  <use x="70.570312" y="560.140625" xlink:href="#a"/>
  <use x="70.601562" y="560.140625" xlink:href="#g"/>
  <use x="70.628906" y="560.140625" xlink:href="#c"/>
  <use x="70.664062" y="560.140625" xlink:href="#u"/>
  <use x="70.691406" y="560.140625" xlink:href="#g"/>
  <use x="70.722656" y="560.140625" xlink:href="#t"/>
  <use x="70.75" y="560.140625" xlink:href="#a"/>
  <use x="70" y="560.1875" xlink:href="#s"/>
  <use x="70.019531" y="560.1875" xlink:href="#e"/>
  <use x="70.042969" y="560.1875" xlink:href="#c"/>
  <use x="70.074219" y="560.1875" xlink:href="#r"/>
  <use x="70.140625" y="560.1875" xlink:href="#d"/>
  <use x="70.164062" y="560.1875" xlink:href="#q"/>
  <use x="70.195312" y="560.1875" xlink:href="#b"/>
  <use x="70.242188" y="560.1875" xlink:href="#p"/>
  <use x="70.28125" y="560.1875" xlink:href="#c"/>
  <use x="70.316406" y="560.1875" xlink:href="#o"/>
  <use x="70.347656" y="560.1875" xlink:href="#f"/>
  <use x="70.398438" y="560.1875" xlink:href="#h"/>
  <use x="70.433594" y="560.1875" xlink:href="#e"/>
  <use x="70.453125" y="560.1875" xlink:href="#c"/>
  <use x="70.488281" y="560.1875" xlink:href="#n"/>
  <use x="70.503906" y="560.1875" xlink:href="#b"/>
  <use x="70.535156" y="560.1875" xlink:href="#m"/>
  <use x="70.5625" y="560.1875" xlink:href="#d"/>
 </g>
</svg>
