<?xml version="1.0" encoding="UTF-8"?>
<svg width="700pt" height="700pt" version="1.1" viewBox="0 0 700 700" xmlns="http://www.w3.org/2000/svg" xmlns:xlink="http://www.w3.org/1999/xlink">
 <defs>
  <symbol id="u" overflow="visible">
   <path d="m18.766-1.125c-0.96875 0.5-1.9805 0.875-3.0312 1.125-1.043 0.25781-2.1367 0.39062-3.2812 0.39062-3.3984 0-6.0898-0.94531-8.0781-2.8438-1.9922-1.9062-2.9844-4.4844-2.9844-7.7344 0-3.2578 0.99219-5.8359 2.9844-7.7344 1.9883-1.9062 4.6797-2.8594 8.0781-2.8594 1.1445 0 2.2383 0.13281 3.2812 0.39062 1.0508 0.25 2.0625 0.625 3.0312 1.125v4.2188c-0.98047-0.65625-1.9453-1.1406-2.8906-1.4531-0.94922-0.3125-1.9492-0.46875-3-0.46875-1.875 0-3.3516 0.60547-4.4219 1.8125-1.0742 1.1992-1.6094 2.8555-1.6094 4.9688 0 2.1055 0.53516 3.7617 1.6094 4.9688 1.0703 1.1992 2.5469 1.7969 4.4219 1.7969 1.0508 0 2.0508-0.14844 3-0.45312 0.94531-0.3125 1.9102-0.80078 2.8906-1.4688z"/>
  </symbol>
  <symbol id="c" overflow="visible">
   <path d="m13.734-11.141c-0.4375-0.19531-0.87109-0.34375-1.2969-0.4375-0.41797-0.10156-0.83984-0.15625-1.2656-0.15625-1.2617 0-2.2305 0.40625-2.9062 1.2188-0.67969 0.80469-1.0156 1.9531-1.0156 3.4531v7.0625h-4.8906v-15.312h4.8906v2.5156c0.625-1 1.3438-1.7266 2.1562-2.1875 0.82031-0.46875 1.8008-0.70312 2.9375-0.70312 0.16406 0 0.34375 0.011719 0.53125 0.03125 0.19531 0.011719 0.47656 0.039062 0.84375 0.078125z"/>
  </symbol>
  <symbol id="b" overflow="visible">
   <path d="m17.641-7.7031v1.4062h-11.453c0.125 1.1484 0.53906 2.0078 1.25 2.5781 0.70703 0.57422 1.7031 0.85938 2.9844 0.85938 1.0312 0 2.082-0.14844 3.1562-0.45312 1.082-0.3125 2.1914-0.77344 3.3281-1.3906v3.7656c-1.1562 0.4375-2.3125 0.76562-3.4688 0.98438-1.1562 0.22656-2.3125 0.34375-3.4688 0.34375-2.7734 0-4.9297-0.70312-6.4688-2.1094-1.5312-1.4062-2.2969-3.3789-2.2969-5.9219 0-2.5 0.75391-4.4609 2.2656-5.8906 1.5078-1.4375 3.582-2.1562 6.2188-2.1562 2.4062 0 4.332 0.73047 5.7812 2.1875 1.4453 1.4492 2.1719 3.3828 2.1719 5.7969zm-5.0312-1.625c0-0.92578-0.27344-1.6719-0.8125-2.2344-0.54297-0.57031-1.25-0.85938-2.125-0.85938-0.94922 0-1.7188 0.26562-2.3125 0.79688s-0.96484 1.2969-1.1094 2.2969z"/>
  </symbol>
  <symbol id="e" overflow="visible">
   <path d="m9.2188-6.8906c-1.0234 0-1.793 0.17188-2.3125 0.51562-0.51172 0.34375-0.76562 0.85547-0.76562 1.5312 0 0.625 0.20703 1.1172 0.625 1.4688 0.41406 0.34375 0.98828 0.51562 1.7188 0.51562 0.92578 0 1.7031-0.32812 2.3281-0.98438 0.63281-0.66406 0.95312-1.4922 0.95312-2.4844v-0.5625zm7.4688-1.8438v8.7344h-4.9219v-2.2656c-0.65625 0.92969-1.3984 1.6055-2.2188 2.0312-0.82422 0.41406-1.8242 0.625-3 0.625-1.5859 0-2.8711-0.45703-3.8594-1.375-0.99219-0.92578-1.4844-2.1289-1.4844-3.6094 0-1.7891 0.61328-3.1016 1.8438-3.9375 1.2383-0.84375 3.1797-1.2656 5.8281-1.2656h2.8906v-0.39062c0-0.76953-0.30859-1.332-0.92188-1.6875-0.61719-0.36328-1.5703-0.54688-2.8594-0.54688-1.0547 0-2.0312 0.10547-2.9375 0.3125-0.89844 0.21094-1.7305 0.52344-2.5 0.9375v-3.7344c1.0391-0.25 2.0859-0.44141 3.1406-0.57812 1.0625-0.13281 2.125-0.20312 3.1875-0.20312 2.7578 0 4.75 0.54688 5.9688 1.6406 1.2266 1.0859 1.8438 2.8555 1.8438 5.3125z"/>
  </symbol>
  <symbol id="a" overflow="visible">
   <path d="m7.7031-19.656v4.3438h5.0469v3.5h-5.0469v6.5c0 0.71094 0.14062 1.1875 0.42188 1.4375s0.83594 0.375 1.6719 0.375h2.5156v3.5h-4.1875c-1.9375 0-3.3125-0.39844-4.125-1.2031-0.80469-0.8125-1.2031-2.1797-1.2031-4.1094v-6.5h-2.4219v-3.5h2.4219v-4.3438z"/>
  </symbol>
  <symbol id="l" overflow="visible">
   <path d="m12.766-13.078v-8.2031h4.9219v21.281h-4.9219v-2.2188c-0.66797 0.90625-1.4062 1.5703-2.2188 1.9844s-1.7578 0.625-2.8281 0.625c-1.8867 0-3.4336-0.75-4.6406-2.25-1.2109-1.5-1.8125-3.4258-1.8125-5.7812 0-2.3633 0.60156-4.2969 1.8125-5.7969 1.207-1.5 2.7539-2.25 4.6406-2.25 1.0625 0 2 0.21484 2.8125 0.64062 0.82031 0.42969 1.5664 1.0859 2.2344 1.9688zm-3.2188 9.9219c1.0391 0 1.8359-0.37891 2.3906-1.1406 0.55078-0.76953 0.82812-1.8828 0.82812-3.3438 0-1.457-0.27734-2.5664-0.82812-3.3281-0.55469-0.76953-1.3516-1.1562-2.3906-1.1562-1.043 0-1.8398 0.38672-2.3906 1.1562-0.55469 0.76172-0.82812 1.8711-0.82812 3.3281 0 1.4609 0.27344 2.5742 0.82812 3.3438 0.55078 0.76172 1.3477 1.1406 2.3906 1.1406z"/>
  </symbol>
  <symbol id="k" overflow="visible">
   <path d="m10.5-3.1562c1.0508 0 1.8516-0.37891 2.4062-1.1406 0.55078-0.76953 0.82812-1.8828 0.82812-3.3438 0-1.457-0.27734-2.5664-0.82812-3.3281-0.55469-0.76953-1.3555-1.1562-2.4062-1.1562-1.0547 0-1.8594 0.38672-2.4219 1.1562-0.55469 0.77344-0.82812 1.8828-0.82812 3.3281 0 1.4492 0.27344 2.5586 0.82812 3.3281 0.5625 0.77344 1.3672 1.1562 2.4219 1.1562zm-3.25-9.9219c0.67578-0.88281 1.4219-1.5391 2.2344-1.9688 0.82031-0.42578 1.7656-0.64062 2.8281-0.64062 1.8945 0 3.4453 0.75 4.6562 2.25 1.207 1.5 1.8125 3.4336 1.8125 5.7969 0 2.3555-0.60547 4.2812-1.8125 5.7812-1.2109 1.5-2.7617 2.25-4.6562 2.25-1.0625 0-2.0078-0.21094-2.8281-0.625-0.8125-0.42578-1.5586-1.0859-2.2344-1.9844v2.2188h-4.8906v-21.281h4.8906z"/>
  </symbol>
  <symbol id="j" overflow="visible">
   <path d="m0.34375-15.312h4.8906l4.125 10.391 3.5-10.391h4.8906l-6.4375 16.766c-0.64844 1.6953-1.4023 2.8828-2.2656 3.5625-0.86719 0.6875-2 1.0312-3.4062 1.0312h-2.8438v-3.2188h1.5312c0.83203 0 1.4375-0.13672 1.8125-0.40625 0.38281-0.26172 0.67969-0.73047 0.89062-1.4062l0.14062-0.42188z"/>
  </symbol>
  <symbol id="i" overflow="visible">
   <path d="m2.5781-20.406h5.25v20.406h-5.25z"/>
  </symbol>
  <symbol id="h" overflow="visible">
   <path d="m12.422-21.281v3.2188h-2.7031c-0.6875 0-1.1719 0.125-1.4531 0.375-0.27344 0.25-0.40625 0.6875-0.40625 1.3125v1.0625h4.1875v3.5h-4.1875v11.812h-4.8906v-11.812h-2.4375v-3.5h2.4375v-1.0625c0-1.6641 0.46094-2.8984 1.3906-3.7031 0.92578-0.80078 2.3672-1.2031 4.3281-1.2031z"/>
  </symbol>
  <symbol id="t" overflow="visible">
   <path d="m2.3594-21.281h4.8906v11.594l5.625-5.625h5.6875l-7.4688 7.0312 8.0625 8.2812h-5.9375l-5.9688-6.3906v6.3906h-4.8906z"/>
  </symbol>
  <symbol id="g" overflow="visible">
   <path d="m2.3594-15.312h4.8906v15.312h-4.8906zm0-5.9688h4.8906v4h-4.8906z"/>
  </symbol>
  <symbol id="f" overflow="visible">
   <path d="m17.75-9.3281v9.3281h-4.9219v-7.1406c0-1.3203-0.03125-2.2344-0.09375-2.7344s-0.16797-0.86719-0.3125-1.1094c-0.1875-0.3125-0.44922-0.55469-0.78125-0.73438-0.32422-0.17578-0.69531-0.26562-1.1094-0.26562-1.0234 0-1.8242 0.39844-2.4062 1.1875-0.58594 0.78125-0.875 1.8711-0.875 3.2656v7.5312h-4.8906v-15.312h4.8906v2.2344c0.73828-0.88281 1.5195-1.5391 2.3438-1.9688 0.83203-0.42578 1.75-0.64062 2.75-0.64062 1.7695 0 3.1133 0.54688 4.0312 1.6406 0.91406 1.0859 1.375 2.6562 1.375 4.7188z"/>
  </symbol>
  <symbol id="d" overflow="visible">
   <path d="m9.6406-12.188c-1.0859 0-1.9141 0.39062-2.4844 1.1719-0.57422 0.78125-0.85938 1.9062-0.85938 3.375s0.28516 2.5938 0.85938 3.375c0.57031 0.77344 1.3984 1.1562 2.4844 1.1562 1.0625 0 1.875-0.38281 2.4375-1.1562 0.57031-0.78125 0.85938-1.9062 0.85938-3.375s-0.28906-2.5938-0.85938-3.375c-0.5625-0.78125-1.375-1.1719-2.4375-1.1719zm0-3.5c2.6328 0 4.6914 0.71484 6.1719 2.1406 1.4766 1.418 2.2188 3.3867 2.2188 5.9062 0 2.5117-0.74219 4.4805-2.2188 5.9062-1.4805 1.418-3.5391 2.125-6.1719 2.125-2.6484 0-4.7148-0.70703-6.2031-2.125-1.4922-1.4258-2.2344-3.3945-2.2344-5.9062 0-2.5195 0.74219-4.4883 2.2344-5.9062 1.4883-1.4258 3.5547-2.1406 6.2031-2.1406z"/>
  </symbol>
  <symbol id="s" overflow="visible">
   <path d="m16.547-12.766c0.61328-0.94531 1.3477-1.6719 2.2031-2.1719 0.85156-0.5 1.7891-0.75 2.8125-0.75 1.7578 0 3.0977 0.54688 4.0156 1.6406 0.92578 1.0859 1.3906 2.6562 1.3906 4.7188v9.3281h-4.9219v-7.9844-0.35938c0.007813-0.13281 0.015625-0.32031 0.015625-0.5625 0-1.082-0.16406-1.8633-0.48438-2.3438-0.3125-0.48828-0.82422-0.73438-1.5312-0.73438-0.92969 0-1.6484 0.38672-2.1562 1.1562-0.51172 0.76172-0.77344 1.8672-0.78125 3.3125v7.5156h-4.9219v-7.9844c0-1.6953-0.14844-2.7852-0.4375-3.2656-0.29297-0.48828-0.8125-0.73438-1.5625-0.73438-0.9375 0-1.6641 0.38672-2.1719 1.1562-0.51172 0.76172-0.76562 1.8594-0.76562 3.2969v7.5312h-4.9219v-15.312h4.9219v2.2344c0.60156-0.86328 1.2891-1.5156 2.0625-1.9531 0.78125-0.4375 1.6406-0.65625 2.5781-0.65625 1.0625 0 2 0.25781 2.8125 0.76562 0.8125 0.51172 1.4258 1.2305 1.8438 2.1562z"/>
  </symbol>
  <symbol id="r" overflow="visible">
   <path d="m17.75-9.3281v9.3281h-4.9219v-7.1094c0-1.3438-0.03125-2.2656-0.09375-2.7656s-0.16797-0.86719-0.3125-1.1094c-0.1875-0.3125-0.44922-0.55469-0.78125-0.73438-0.32422-0.17578-0.69531-0.26562-1.1094-0.26562-1.0234 0-1.8242 0.39844-2.4062 1.1875-0.58594 0.78125-0.875 1.8711-0.875 3.2656v7.5312h-4.8906v-21.281h4.8906v8.2031c0.73828-0.88281 1.5195-1.5391 2.3438-1.9688 0.83203-0.42578 1.75-0.64062 2.75-0.64062 1.7695 0 3.1133 0.54688 4.0312 1.6406 0.91406 1.0859 1.375 2.6562 1.375 4.7188z"/>
  </symbol>
  <symbol id="q" overflow="visible">
   <path d="m2.5781-20.406h5.875l7.4219 14v-14h4.9844v20.406h-5.875l-7.4219-14v14h-4.9844z"/>
  </symbol>
  <symbol id="p" overflow="visible">
   <path d="m2.1875-5.9688v-9.3438h4.9219v1.5312c0 0.83594-0.007813 1.875-0.015625 3.125-0.011719 1.25-0.015625 2.0859-0.015625 2.5 0 1.2422 0.03125 2.1328 0.09375 2.6719 0.070313 0.54297 0.17969 0.93359 0.32812 1.1719 0.20703 0.32422 0.47266 0.57422 0.79688 0.75 0.32031 0.16797 0.69141 0.25 1.1094 0.25 1.0195 0 1.8203-0.39062 2.4062-1.1719 0.58203-0.78125 0.875-1.8672 0.875-3.2656v-7.5625h4.8906v15.312h-4.8906v-2.2188c-0.74219 0.89844-1.5234 1.5586-2.3438 1.9844-0.82422 0.41406-1.7344 0.625-2.7344 0.625-1.7617 0-3.1055-0.53906-4.0312-1.625-0.92969-1.082-1.3906-2.6602-1.3906-4.7344z"/>
  </symbol>
  <symbol id="o" overflow="visible">
   <path d="m2.5781-20.406h8.7344c2.5938 0 4.582 0.57812 5.9688 1.7344 1.3945 1.1484 2.0938 2.7891 2.0938 4.9219 0 2.1367-0.69922 3.7812-2.0938 4.9375-1.3867 1.1562-3.375 1.7344-5.9688 1.7344h-3.4844v7.0781h-5.25zm5.25 3.8125v5.7031h2.9219c1.0195 0 1.8047-0.25 2.3594-0.75 0.5625-0.5 0.84375-1.2031 0.84375-2.1094 0-0.91406-0.28125-1.6172-0.84375-2.1094-0.55469-0.48828-1.3398-0.73438-2.3594-0.73438z"/>
  </symbol>
  <symbol id="n" overflow="visible">
   <path d="m2.3594-15.312h4.8906v15.031c0 2.0508-0.49609 3.6172-1.4844 4.7031-0.98047 1.082-2.4062 1.625-4.2812 1.625h-2.4219v-3.2188h0.85938c0.92578 0 1.5625-0.21094 1.9062-0.625 0.35156-0.41797 0.53125-1.2461 0.53125-2.4844zm0-5.9688h4.8906v4h-4.8906z"/>
  </symbol>
  <symbol id="m" overflow="visible">
   <path d="m14.719-14.828v3.9844c-0.65625-0.45703-1.3242-0.79688-2-1.0156-0.66797-0.21875-1.3594-0.32812-2.0781-0.32812-1.3672 0-2.4336 0.40234-3.2031 1.2031-0.76172 0.79297-1.1406 1.9062-1.1406 3.3438 0 1.4297 0.37891 2.543 1.1406 3.3438 0.76953 0.79297 1.8359 1.1875 3.2031 1.1875 0.75781 0 1.4844-0.10938 2.1719-0.32812 0.6875-0.22656 1.3203-0.56641 1.9062-1.0156v4c-0.76172 0.28125-1.5391 0.48828-2.3281 0.625-0.78125 0.14453-1.5742 0.21875-2.375 0.21875-2.7617 0-4.9219-0.70703-6.4844-2.125-1.5547-1.4141-2.3281-3.3828-2.3281-5.9062 0-2.5312 0.77344-4.5039 2.3281-5.9219 1.5625-1.4141 3.7227-2.125 6.4844-2.125 0.80078 0 1.5938 0.074219 2.375 0.21875 0.78125 0.13672 1.5547 0.35156 2.3281 0.64062z"/>
  </symbol>
 </defs>
 <g>
  <path d="m117.73 255.51 52.965 44.746v66.98c0.019532 16.906 6.7461 33.117 18.699 45.07 11.957 11.957 28.164 18.68 45.074 18.699h11.047c-7.1133 8.1133-15.555 19.984-16.09 31.16-0.14844 2.8047 0.26562 5.6094 1.2266 8.2461h-23.484c-1.4844 0-2.9102 0.58984-3.9609 1.6406-1.0508 1.0508-1.6406 2.4727-1.6406 3.957v27.473c0 1.4883 0.58984 2.9102 1.6406 3.9609 1.0508 1.0508 2.4766 1.6406 3.9609 1.6406h285.67c1.4844 0 2.9102-0.58984 3.957-1.6406 1.0508-1.0508 1.6406-2.4727 1.6406-3.9609v-27.473c0-1.4844-0.58984-2.9062-1.6406-3.957-1.0469-1.0508-2.4727-1.6406-3.957-1.6406h-23.484c0.95703-2.6367 1.375-5.4414 1.2266-8.2461-0.53516-11.176-8.9766-23.047-16.09-31.16h10.977c16.922-0.019531 33.148-6.75 45.117-18.719 11.969-11.965 18.699-28.191 18.719-45.117v-66.91l52.953-44.734v-0.003906c11.262-9.4375 17.508-23.57 16.91-38.254v-0.027343c-0.46484-11.559-5.1133-22.551-13.074-30.941-7.9609-8.3867-18.699-13.602-30.219-14.668-11.516-1.0664-23.027 2.082-32.395 8.8672l-2.3906 1.7305h-342.18l-2.3828-1.7266c-13.449-9.7773-31.02-11.844-46.367-5.4531-15.352 6.3867-26.262 20.312-28.801 36.742-2.5391 16.43 3.6641 33 16.371 43.723zm52.965-2.8047-29.535-24.918c-2.6875-2.2734-4.1719-5.6602-4.0273-9.1758 0.125-3.4961 1.8633-6.7344 4.7109-8.7695 4.0039-2.8438 9.3711-2.8359 13.363 0.023438l15.488 11.312zm195.22 216.75v0.003906c-0.22656 0.29688-0.42578 0.61719-0.58594 0.95703h-30.652c-0.16016-0.33984-0.35547-0.66016-0.58594-0.95703-1.707-1.8086-2.5586-4.2656-2.332-6.7422 0.46094-9.6484 11.215-22.488 18.25-29.582 7.0273 7.082 17.777 19.898 18.242 29.574 0.22266 2.4805-0.625 4.9375-2.3359 6.75zm-45.34-7.2891v0.003907c-0.15234 2.8047 0.26562 5.6094 1.2227 8.2461h-34.73c0.95703-2.6367 1.375-5.4414 1.2227-8.2461-0.53516-11.176-8.9766-23.047-16.09-31.16h64.457c-7.1094 8.1133-15.547 19.984-16.082 31.16zm-77.629 7.2969c-1.707-1.8125-2.5547-4.2695-2.332-6.7461 0.45312-9.6484 11.215-22.484 18.25-29.582 7.0234 7.0859 17.773 19.898 18.238 29.578v-0.003907c0.22656 2.4805-0.62109 4.9375-2.3281 6.7539-0.23047 0.29297-0.42578 0.61328-0.58594 0.95312h-30.66c-0.16016-0.33984-0.35547-0.66016-0.58203-0.95312zm244.29 28.426h-274.47v-16.273h274.47zm-30.176-28.426c-0.23047 0.29297-0.42578 0.61328-0.58594 0.95312h-30.656c-0.16406-0.33984-0.35937-0.66016-0.58594-0.95703-1.707-1.8125-2.5586-4.2656-2.3359-6.7422 0.46094-9.6484 11.223-22.484 18.254-29.582 7.0234 7.0859 17.773 19.898 18.238 29.578v-0.003907c0.22656 2.4805-0.62109 4.9375-2.3281 6.7539zm-45.348-7.2891v-0.003906c-0.14844 2.8047 0.26953 5.6094 1.2266 8.2461h-34.734c0.95703-2.6367 1.375-5.4414 1.2266-8.2461-0.53516-11.176-8.9766-23.047-16.09-31.16h64.461c-7.1133 8.1172-15.555 19.984-16.09 31.16zm106.39-94.996v-0.003906c-0.019531 13.953-5.5703 27.332-15.438 37.203-9.8672 9.8672-23.246 15.418-37.199 15.434h-24.223-0.19531-90.953-0.19531-90.945-0.19531-24.293c-13.941-0.015625-27.301-5.5586-37.156-15.414s-15.402-23.219-15.418-37.156v-173.81h336.21l0.003907 173.74zm11.199-145.99 15.453-11.289c3.9844-2.8789 9.3594-2.9062 13.371-0.066406 2.8477 2.0469 4.5938 5.293 4.7383 8.7969 0.14062 3.5039-1.3359 6.8789-4.0117 9.1523l-29.555 24.934zm43.438-31.723c9.1602 6.5352 14.785 16.941 15.234 28.188 0.44922 11.242-4.3281 22.066-12.938 29.312l-45.734 38.641v-18.238l36.789-31.039c6.0078-5.0898 8.9297-12.941 7.7188-20.723-1.2148-7.7812-6.3945-14.367-13.668-17.387-7.2734-3.0156-15.594-2.0273-21.961 2.6094l-8.8828 6.4844 0.003907-17.199 0.75391-0.55078v0.003906c6.1953-4.5156 13.66-6.957 21.324-6.9727 7.668-0.019532 15.141 2.3867 21.359 6.8711zm-445.46-0.011719v-0.003907c6.2148-4.4805 13.688-6.8828 21.352-6.8594 7.6641 0.019531 15.121 2.4648 21.312 6.9805l0.75 0.54297v17.199l-8.9141-6.5117c-3.8516-2.7695-8.4727-4.2656-13.215-4.2773-4.7422-0.011719-9.3711 1.4609-13.238 4.2148-5.6484 4.0625-9.1094 10.504-9.3828 17.457-0.27344 6.9531 2.668 13.645 7.9805 18.145l36.773 31.027-0.003907 18.238-45.746-38.652c-8.6094-7.25-13.379-18.074-12.926-29.324 0.45703-11.246 6.0898-21.648 15.258-28.18z"/>
  <path d="m180.99 173.95h338.03c1.4844 0 2.9102-0.58984 3.9609-1.6406 1.0469-1.0508 1.6406-2.4766 1.6367-3.9609-0.015625-14.578-5.8125-28.555-16.121-38.863-10.309-10.309-24.285-16.109-38.867-16.125h-66.875v-9.7266c-0.019531-13.984-5.5898-27.391-15.488-37.277-9.8945-9.8828-23.309-15.434-37.297-15.438-13.977 0.015626-27.375 5.5742-37.258 15.457-9.8828 9.8828-15.441 23.281-15.457 37.258v9.7266h-66.875c-14.59-0.011719-28.582 5.7773-38.895 16.094-10.316 10.316-16.105 24.309-16.094 38.895 0 1.4844 0.58984 2.9102 1.6406 3.9609 1.0469 1.0508 2.4727 1.6406 3.957 1.6406zm127.47-70.316c0.003906-11.012 4.3789-21.57 12.168-29.355 7.7891-7.7891 18.352-12.16 29.367-12.16 11.012 0 21.574 4.375 29.359 12.164 7.8477 7.7461 12.242 18.328 12.203 29.352v9.7266h-21.418c2.8789-4.7695 3.9648-10.41 3.0703-15.906-0.89844-5.4961-3.7227-10.496-7.9648-14.105-4.2422-3.6055-9.6328-5.5859-15.203-5.5859-5.5703 0-10.957 1.9805-15.203 5.5859-4.2422 3.6094-7.0664 8.6094-7.9609 14.105-0.89844 5.4961 0.19141 11.137 3.0664 15.906h-21.484zm29.312-2.3438c0.011718-4.7383 2.7656-9.0469 7.0625-11.051 4.2969-2.0039 9.3633-1.3438 13.008 1.6914 3.6406 3.0352 5.2031 7.9023 4.0039 12.488-1.1992 4.5898-4.9375 8.0703-9.6016 8.9414h-4.4961 0.003906c-5.793-1.1094-9.9805-6.1719-9.9805-12.07zm-138.38 36.102c8.2148-8.2266 19.367-12.844 30.992-12.832h239.25c10.641 0.011718 20.914 3.8945 28.906 10.922 7.9883 7.0234 13.152 16.715 14.527 27.27h-326.12c1.2266-9.5977 5.6016-18.516 12.441-25.359z"/>
  <path d="m496.93 209h-293.87c-1.4844 0-2.9102 0.58984-3.9609 1.6406-1.0508 1.0469-1.6406 2.4727-1.6406 3.957v141.6c0.015625 12.738 5.082 24.949 14.09 33.957 9.0039 9.0078 21.215 14.07 33.953 14.086h208.92c12.754-0.011719 24.984-5.0859 34.004-14.105 9.0195-9.0195 14.09-21.25 14.105-34.004v-141.53c0-1.4844-0.58984-2.9102-1.6406-3.957-1.0508-1.0508-2.4766-1.6406-3.9609-1.6406zm-5.6016 11.199 0.003907 58.914c-28.676-3.4648-57.762-0.37109-85.062 9.0586-4.1172-7.6367-11.418-13.047-19.922-14.762-8.5039-1.7148-17.332 0.44141-24.086 5.8867-6.7539 5.4414-10.738 13.609-10.871 22.285-14.109 1.5352-28.379 0.56641-42.152-2.8633-7.7383-2.0352-15.34-4.5859-22.691-7.0547-25.734-8.6367-50.18-16.766-77.887-3.4531v-68.012zm-128.5 85.426c-0.20703-1.1328-0.30859-2.2812-0.30078-3.4336-0.027344-5.8281 2.7578-11.312 7.4805-14.73 4.7227-3.4141 10.805-4.3438 16.332-2.4922s9.8242 6.2539 11.535 11.824c0.54297 1.75 0.82031 3.5703 0.83203 5.3984-0.003906 6.0547-3.0352 11.707-8.0781 15.062-5.043 3.3516-11.426 3.9648-17.012 1.6289-5.5859-2.3359-9.6367-7.3125-10.789-13.258zm91.59 87.414h-208.92c-9.7656-0.011718-19.133-3.8945-26.039-10.805-6.9062-6.9062-10.793-16.27-10.805-26.039v-55.324c25.723-14.836 48.316-7.3203 74.32 1.4062 7.5234 2.5273 15.301 5.1367 23.422 7.2773h0.003906c10.434 2.6914 21.168 4.0352 31.941 4 4.8594 0 9.8477-0.33984 14.922-0.85156v0.003906c3.3008 8.582 10.441 15.113 19.281 17.645 8.8398 2.5312 18.355 0.76563 25.695-4.7695 7.3438-5.5352 11.664-14.195 11.664-23.391-0.019531-1.1211-0.10547-2.2383-0.25781-3.3477 26.207-9.0977 54.164-11.996 81.68-8.4609v65.746c-0.011719 9.7852-3.9062 19.168-10.824 26.086-6.918 6.918-16.301 10.812-26.086 10.824z"/>
  <path d="m393.79 339.22c-5.7773-0.003906-11.312 2.293-15.398 6.375-4.082 4.082-6.3789 9.6211-6.3789 15.395 0 5.7773 2.293 11.312 6.375 15.398 4.0859 4.082 9.6211 6.3789 15.398 6.3789 5.7734 0 11.312-2.293 15.395-6.3789 4.0859-4.082 6.3789-9.6211 6.3789-15.395-0.007813-5.7734-2.3008-11.309-6.3828-15.391s-9.6133-6.3789-15.387-6.3828zm0 32.348c-4.2773 0-8.1328-2.5742-9.7734-6.5273-1.6367-3.9492-0.73047-8.5 2.293-11.523 3.0234-3.0234 7.5703-3.9297 11.523-2.293 3.9492 1.6367 6.5273 5.4922 6.5273 9.7695-0.007813 5.832-4.7344 10.562-10.57 10.574z"/>
  <path d="m314.89 321.93c-6.0703 0-11.895 2.4102-16.188 6.7031s-6.7031 10.113-6.7031 16.184c0 6.0703 2.4102 11.895 6.7031 16.188 4.293 4.293 10.113 6.7031 16.184 6.7031 6.0703 0 11.895-2.4141 16.188-6.7031 4.2891-4.293 6.7031-10.117 6.7031-16.188-0.007813-6.0664-2.4219-11.883-6.7148-16.176-4.2891-4.2891-10.105-6.7031-16.172-6.7109zm0 34.578c-4.7305 0-8.9922-2.8477-10.801-7.2148-1.8086-4.3672-0.80859-9.3945 2.5312-12.738 3.3438-3.3438 8.3711-4.3438 12.738-2.5352 4.3672 1.8086 7.2148 6.0703 7.2148 10.797-0.007812 6.4531-5.2344 11.68-11.684 11.691z"/>
  <path d="m337.25 273.67c5.4375 0 10.656-2.1602 14.504-6.0078 3.8477-3.8477 6.0117-9.0664 6.0117-14.508 0-5.4375-2.1602-10.656-6.0078-14.504-3.8477-3.8477-9.0664-6.0117-14.508-6.0117s-10.656 2.1602-14.504 6.0078c-3.8477 3.8477-6.0117 9.0664-6.0117 14.508 0.007813 5.4375 2.1719 10.652 6.0156 14.5 3.8438 3.8438 9.0586 6.0078 14.5 6.0156zm0-29.828v-0.003906c3.7656 0 7.1641 2.2695 8.6055 5.75 1.4414 3.4805 0.64453 7.4883-2.0195 10.152-2.6641 2.6641-6.6719 3.4609-10.152 2.0195-3.4805-1.4414-5.75-4.8398-5.75-8.6055 0.007812-5.1406 4.1719-9.3086 9.3164-9.3164z"/>
  <use x="70" y="644" xlink:href="#u"/>
  <use x="90.546875" y="644" xlink:href="#c"/>
  <use x="104.355469" y="644" xlink:href="#b"/>
  <use x="123.347656" y="644" xlink:href="#e"/>
  <use x="142.242188" y="644" xlink:href="#a"/>
  <use x="155.625" y="644" xlink:href="#b"/>
  <use x="174.617188" y="644" xlink:href="#l"/>
  <use x="204.40625" y="644" xlink:href="#k"/>
  <use x="224.449219" y="644" xlink:href="#j"/>
  <use x="252.449219" y="644" xlink:href="#i"/>
  <use x="262.867188" y="644" xlink:href="#h"/>
  <use x="275.050781" y="644" xlink:href="#t"/>
  <use x="293.671875" y="644" xlink:href="#g"/>
  <use x="313.015625" y="644" xlink:href="#c"/>
  <use x="326.828125" y="644" xlink:href="#g"/>
  <use x="336.421875" y="644" xlink:href="#e"/>
  <use x="355.320312" y="644" xlink:href="#f"/>
  <use x="375.25" y="644" xlink:href="#a"/>
  <use x="388.636719" y="644" xlink:href="#d"/>
  <use x="70" y="672" xlink:href="#h"/>
  <use x="82.183594" y="672" xlink:href="#c"/>
  <use x="95.992188" y="672" xlink:href="#d"/>
  <use x="115.226562" y="672" xlink:href="#s"/>
  <use x="154.152344" y="672" xlink:href="#a"/>
  <use x="167.535156" y="672" xlink:href="#r"/>
  <use x="187.46875" y="672" xlink:href="#b"/>
  <use x="216.207031" y="672" xlink:href="#q"/>
  <use x="239.640625" y="672" xlink:href="#d"/>
  <use x="258.878906" y="672" xlink:href="#p"/>
  <use x="278.8125" y="672" xlink:href="#f"/>
  <use x="308.492188" y="672" xlink:href="#o"/>
  <use x="329.015625" y="672" xlink:href="#c"/>
  <use x="342.820312" y="672" xlink:href="#d"/>
  <use x="362.058594" y="672" xlink:href="#n"/>
  <use x="371.65625" y="672" xlink:href="#b"/>
  <use x="390.648438" y="672" xlink:href="#m"/>
  <use x="407.242188" y="672" xlink:href="#a"/>
 </g>
</svg>
